<?xml version="1.0" encoding="UTF-8"?>
<svg version="1.1" xmlns="http://www.w3.org/2000/svg" width="322" height="370">
<path d="M0 0 C28.72620327 25.72764343 44.4060067 76.76893329 52.3125 112.875 C52.45993652 113.53806152 52.60737305 114.20112305 52.75927734 114.88427734 C55.80984623 129.8653243 56.37555303 145.01383753 56.3125 160.25 C56.31100952 161.145979 56.30951904 162.04195801 56.3079834 162.96508789 C56.26755634 176.5087545 55.72113787 189.69340125 53 203 C52.86078125 203.72864258 52.7215625 204.45728516 52.578125 205.20800781 C47.77690859 229.95872298 37.66916952 254.47473598 23 275 C22.54898926 275.63212402 22.09797852 276.26424805 21.63330078 276.91552734 C7.81852412 296.10089784 -7.86479194 314.39395446 -26.52734375 329.03125 C-29.11704589 331.09319294 -31.55672946 333.26702661 -34 335.5 C-37.28941649 338.50069028 -40.64341646 341.35012596 -44.125 344.125 C-49.06655878 348.13338888 -53.77290706 352.36053876 -58.4375 356.6875 C-59.46738037 357.63230225 -59.46738037 357.63230225 -60.51806641 358.59619141 C-63.58546807 361.46975085 -65.86788782 363.76847667 -67.97265625 367.45703125 C-68.64167969 368.29621094 -69.31070313 369.13539063 -70 370 C-75.67471991 370.45435845 -80.40619523 369.61420661 -85.82421875 367.8828125 C-86.53351028 367.6655954 -87.24280182 367.4483783 -87.97358704 367.22457886 C-90.21493537 366.5351303 -92.45104249 365.83013052 -94.6875 365.125 C-96.19826595 364.65917645 -97.70933176 364.19432426 -99.22070312 363.73046875 C-110.98846869 360.09499918 -110.98846869 360.09499918 -116 358 C-116.33 358.99 -116.66 359.98 -117 361 C-117.22768066 360.38592285 -117.45536133 359.7718457 -117.68994141 359.13916016 C-119.41413289 356.32377332 -120.88460859 355.90424042 -123.9609375 354.7734375 C-124.98002197 354.38671875 -125.99910645 354 -127.04907227 353.6015625 C-128.14662842 353.19679688 -129.24418457 352.79203125 -130.375 352.375 C-152.02233593 344.04278278 -172.01985908 333.65638886 -190.20703125 319.1953125 C-192.50775334 317.38691276 -194.82927964 315.70250121 -197.25 314.0625 C-200 312 -200 312 -201 309 C-201.99 308.67 -202.98 308.34 -204 308 C-205.71679895 306.38502108 -207.37729913 304.7095021 -209 303 C-209.81597656 302.15824219 -210.63195312 301.31648438 -211.47265625 300.44921875 C-248.4179081 261.05209499 -266.20969153 210.19873147 -266.25 156.5625 C-266.25067474 155.75075317 -266.25134949 154.93900635 -266.25204468 154.10266113 C-266.20209433 115.97794192 -259.79714037 76.90735881 -244 42 C-202.72315603 46.41608156 -155.11308558 73.51464878 -125 102 C-125 102.66 -125 103.32 -125 104 C-124.41371826 104.26176025 -123.82743652 104.52352051 -123.22338867 104.79321289 C-120.87568952 106.06747191 -119.31418111 107.42738878 -117.42578125 109.30859375 C-116.76263916 109.96762695 -116.09949707 110.62666016 -115.41625977 111.30566406 C-114.37489868 112.36092285 -114.37489868 112.36092285 -113.3125 113.4375 C-112.59570068 114.1603418 -111.87890137 114.88318359 -111.14038086 115.62792969 C-105.70981334 121.15996291 -100.70144257 126.82935663 -96 133 C-95.278125 133.928125 -94.55625 134.85625 -93.8125 135.8125 C-91.49220603 138.84177268 -89.23396179 141.90653088 -87 145 C-86.61231445 145.53512207 -86.22462891 146.07024414 -85.82519531 146.62158203 C-59.25438721 183.69232044 -44.75240183 228.79014088 -44.8125 274.3125 C-44.81243958 275.01532104 -44.81237915 275.71814209 -44.81231689 276.44226074 C-44.83187005 292.4640216 -45.93469662 308.24955815 -49 324 C-48.34 324 -47.68 324 -47 324 C-47 323.34 -47 322.68 -47 322 C-45.55235738 320.70958086 -44.03910851 319.49232866 -42.5 318.3125 C-35.9735923 313.21691719 -29.78392441 307.93223017 -24 302 C-23.46761719 301.47792969 -22.93523437 300.95585937 -22.38671875 300.41796875 C-18.67963025 296.77663792 -15.18664468 293.01563405 -11.80078125 289.07421875 C-10.61110844 287.70390148 -9.40025316 286.3516596 -8.16796875 285.01953125 C26.44319292 247.44774068 40.04267653 199.28126844 38 149 C36.6224064 126.86182917 32.63100971 105.3039299 25.13671875 84.421875 C24 81 24 81 24 78 C23.34 77.67 22.68 77.34 22 77 C21.30444336 75.06201172 21.30444336 75.06201172 20.65234375 72.5546875 C19.11163024 67.13283869 17.0079339 62.19450519 14.5625 57.125 C14.13582031 56.23240479 13.70914062 55.33980957 13.26953125 54.42016602 C8.79737735 45.26301325 3.5815512 36.5838601 -1.83007812 27.95678711 C-2.99212036 26.01317933 -4.01423633 24.03783304 -5 22 C-5.66 22 -6.32 22 -7 22 C-7 21.34 -7 20.68 -7 20 C-23.57906976 28.65471263 -39.05534979 38.77917014 -54 50 C-54.62358398 50.46374023 -55.24716797 50.92748047 -55.88964844 51.40527344 C-65.92658294 58.90148912 -75.00185282 67.29825075 -84 76 C-84.5057959 76.48388184 -85.0115918 76.96776367 -85.53271484 77.46630859 C-91.21877905 82.9118625 -96.27425819 88.6162361 -101.08984375 94.84765625 C-103 97 -103 97 -106 98 C-107.9375 96.890625 -107.9375 96.890625 -110 95.25 C-110.680625 94.71890625 -111.36125 94.1878125 -112.0625 93.640625 C-113.80387186 92.16607624 -115.41741026 90.64193685 -117 89 C-115.57918195 84.64334798 -113.44390457 82.00113025 -110.3125 78.6875 C-109.39904184 77.71159013 -108.48628351 76.73502474 -107.57421875 75.7578125 C-106.29998047 74.39269531 -106.29998047 74.39269531 -105 73 C-103.86831418 71.69326038 -102.74248306 70.38140593 -101.625 69.0625 C-93.53127948 59.79082015 -84.68218696 51.58156286 -75 44 C-73.70503272 42.95398662 -72.41081528 41.90704452 -71.1171875 40.859375 C-15.78505439 -3.53802943 -15.78505439 -3.53802943 0 0 Z M-233 63 C-236.51777534 70.08237821 -238.61867564 77.27470067 -240.5 84.9375 C-240.80115723 86.15518066 -241.10231445 87.37286133 -241.41259766 88.62744141 C-254.53270258 143.30277916 -253.25441048 206.13336716 -223.84765625 255.6953125 C-215.93035155 268.57604367 -206.40548405 280.07424175 -196 291 C-195.33484375 291.71800781 -194.6696875 292.43601562 -193.984375 293.17578125 C-165.20500349 323.34575264 -117.5664159 343.94497115 -77 351 C-73.82437588 350.29460428 -73.82437588 350.29460428 -72.46875 347.55859375 C-70.64110189 343.13043569 -69.53306077 338.73193469 -68.5 334.0625 C-68.28569336 333.09666992 -68.07138672 332.13083984 -67.85058594 331.13574219 C-55.10250111 271.6254518 -64.08855098 212.70452582 -96.33642578 160.85107422 C-99.02001444 156.73567009 -101.95261727 152.85065395 -105 149 C-105.49516113 148.3611084 -105.99032227 147.7222168 -106.50048828 147.06396484 C-121.59498167 127.66862528 -138.87714237 110.77552047 -159.33056641 97.11621094 C-160.95973625 96.02692101 -162.57961653 94.92377775 -164.19921875 93.8203125 C-182.43126245 81.69438521 -210.79223909 63 -233 63 Z " fill="#4CA77B" transform="translate(266,0)"/>
<path d="M0 0 C0.55945313 0.51175781 1.11890625 1.02351563 1.6953125 1.55078125 C1.6953125 2.21078125 1.6953125 2.87078125 1.6953125 3.55078125 C2.28828125 3.80601563 2.88125 4.06125 3.4921875 4.32421875 C12.83243933 9.52428803 19.05807074 24.64512476 21.94921875 34.54296875 C22.9977018 38.51717664 23.85068208 42.52931783 24.6953125 46.55078125 C28.78415313 65.1533507 33.24322606 76.66099956 48.2578125 89.11328125 C63.53235901 101.7871572 73.59330848 117.46975162 75.5703125 137.55078125 C76.20689031 151.90561079 72.92814917 165.37067095 63.5703125 176.5234375 C55.49554503 185.25427982 45.16640327 192.32566153 32.9375 192.88671875 C22.92872804 193.05692647 13.86699797 193.03678706 4.6953125 188.55078125 C3.69371094 188.06480469 2.69210938 187.57882812 1.66015625 187.078125 C-14.23991595 178.5753051 -25.04604317 163.68467256 -30.3046875 146.55078125 C-32.00487673 139.62639946 -33.13783002 132.5806867 -34.3046875 125.55078125 C-37.07225035 108.95615895 -42.54869519 99.78171587 -54.8046875 88.23828125 C-58.93535311 84.20390155 -61.99740834 79.41353267 -65.19140625 74.63671875 C-67.2329665 71.55070461 -67.2329665 71.55070461 -69.53515625 68.87890625 C-71.57562835 66.19431161 -71.83651707 64.14608668 -72.08984375 60.828125 C-72.3264171 58.32044745 -72.83678582 55.95007662 -73.3671875 53.48828125 C-76.10399961 38.4772815 -74.8989956 21.54913777 -66.3046875 8.55078125 C-59.03431657 -0.95445078 -50.95484962 -7.44200673 -39.3046875 -10.44921875 C-38.3559375 -10.69671875 -37.4071875 -10.94421875 -36.4296875 -11.19921875 C-23.02994042 -12.27119852 -10.77519566 -7.81288303 0 0 Z M-53.4296875 17.11328125 C-59.93469787 29.03913359 -60.05316001 43.92585549 -56.3359375 56.78125 C-52.51613189 67.03974309 -45.17426214 75.75512154 -36.6796875 82.55078125 C-23.29147071 93.64564609 -20.37113717 110.40997925 -18.00292969 126.61572266 C-15.68201636 142.23085774 -10.70385859 157.88480534 1.8515625 168.34765625 C4.06899648 169.9248452 6.30060599 171.26070367 8.6953125 172.55078125 C9.41976562 172.96328125 10.14421875 173.37578125 10.890625 173.80078125 C19.32333427 177.91708679 31.23827692 178.30264158 40.1953125 175.55078125 C48.53967775 171.47214532 54.10812931 164.86169285 57.6640625 156.38671875 C61.10977909 143.56969718 59.46583418 130.08048562 53.0703125 118.55078125 C46.99210611 108.97573019 38.69143695 101.06022925 29.8203125 94.07421875 C17.11419083 83.92066616 12.59996471 69.02313672 9.6953125 53.61328125 C6.28729234 35.59238393 1.06736302 20.62365666 -14.3046875 9.55078125 C-19.31589619 6.89954566 -23.60045399 5.314744 -29.3046875 5.55078125 C-30.82780223 5.55078125 -32.34780934 5.40740428 -33.8671875 5.30078125 C-42.63470027 5.31649364 -48.10395044 10.69106891 -53.4296875 17.11328125 Z " fill="#4EA87B" transform="translate(109.3046875,121.44921875)"/>
<path d="M0 0 C2.4375 0.6875 2.4375 0.6875 5 2 C6.1440391 4.55077197 6.20968025 6.31697646 5.38989258 8.98739624 C4.39154971 11.44844541 3.30662219 13.8531615 2.1875 16.26171875 C1.57769287 17.61871635 1.57769287 17.61871635 0.95556641 19.00312805 C-0.35037645 21.90380291 -1.67415863 24.79587324 -3 27.6875 C-10.32114503 43.75476101 -10.32114503 43.75476101 -17.1875 60.01953125 C-17.64310303 61.10278938 -17.64310303 61.10278938 -18.10791016 62.20793152 C-19.81848091 66.54329139 -20.35568009 69.51004253 -19 74 C-18.03257491 75.85765476 -18.03257491 75.85765476 -16.71484375 77.359375 C-16.26689453 77.91753906 -15.81894531 78.47570312 -15.35742188 79.05078125 C-14.88884766 79.61152344 -14.42027344 80.17226562 -13.9375 80.75 C-9 86.77199864 -9 86.77199864 -9 89 C-7.68 89.33 -6.36 89.66 -5 90 C-4.73960937 89.17242187 -4.47921875 88.34484375 -4.2109375 87.4921875 C-2.86392221 83.60756923 -1.28548518 79.88331443 0.375 76.125 C0.68373047 75.41537109 0.99246094 74.70574219 1.31054688 73.97460938 C2.88964089 70.37612889 4.55296305 66.9175264 6.5 63.5 C7.99657318 60.00799592 8.12416006 59.34689033 7.5 55.875 C7 52 7 52 8.6875 48.625 C12.1064204 44.74406332 12.1064204 44.74406332 15 44 C19.30085755 44.07819741 21.43026232 44.56650394 24.875 47.1875 C27.29436489 50.38960059 28.08184985 51.98935748 28 56 C26.5625 59.1875 26.5625 59.1875 24 62 C22.75734375 62.30292969 21.5146875 62.60585937 20.234375 62.91796875 C16.08462631 64.39608407 14.77872975 66.46618177 12.76171875 70.3203125 C11.7085548 72.57548444 10.68538962 74.84483091 9.6875 77.125 C8.8682605 78.91357422 8.8682605 78.91357422 8.0324707 80.73828125 C6.60688634 83.85464257 5.21587385 86.98522033 3.83300781 90.12072754 C2.48130259 93.17018562 1.09746982 96.20485113 -0.28125 99.2421875 C-2.219337 103.55074392 -4.15569601 107.8598377 -6.05078125 112.1875 C-6.42887939 113.04730469 -6.80697754 113.90710938 -7.1965332 114.79296875 C-8.17104261 117.078379 -8.17104261 117.078379 -8 120 C-7.50822266 119.73896484 -7.01644531 119.47792969 -6.50976562 119.20898438 C-5.02526664 118.42193802 -3.54018475 117.63599064 -2.0546875 116.85083008 C-0.33992295 115.9441221 1.37360527 115.03507242 3.0859375 114.1237793 C7.2561536 111.91685948 11.42938991 109.76764981 15.71875 107.80078125 C16.44255859 107.46304688 17.16636719 107.1253125 17.91210938 106.77734375 C19.26932377 106.15015581 20.63504662 105.54095431 22.00976562 104.953125 C27.21925109 102.52021346 28.11019905 100.12017944 30 95 C33 93 33 93 36 93 C36.33 92.34 36.66 91.68 37 91 C37 91.66 37 92.32 37 93 C37.7425 92.896875 38.485 92.79375 39.25 92.6875 C42 93 42 93 44.25 95.0625 C46.33321712 98.55932874 46.92738579 100.93360404 47 105 C45.65437601 107.94755732 44.91445456 109.54277272 42 111 C38.32670036 111.13357453 35.50147041 111.1671568 32 110 C29.27180179 111.06267967 29.27180179 111.06267967 26.29296875 112.71875 C24.58548462 113.61859619 24.58548462 113.61859619 22.84350586 114.53662109 C21.62482247 115.19105323 20.4061541 115.84551333 19.1875 116.5 C17.95577188 117.15171209 16.72343064 117.8022667 15.49047852 118.45166016 C13.07695766 119.7235153 10.66552493 120.99917676 8.25585938 122.27832031 C4.33622903 124.35099827 0.39937648 126.38444956 -3.5625 128.375 C-4.59503906 128.89835938 -5.62757813 129.42171875 -6.69140625 129.9609375 C-9 131 -9 131 -11 131 C-8.7981316 136.00492953 -6.04227153 139.48797701 -2.3125 143.375 C-1.7772168 143.93719238 -1.24193359 144.49938477 -0.69042969 145.07861328 C0.37964769 146.20048936 1.45202493 147.32017693 2.52685547 148.4375 C3.81881755 149.8078277 5.0569042 151.22853822 6.28515625 152.65625 C9.50536181 156.58168441 9.50536181 156.58168441 14.0546875 158.1875 C16.05296695 157.88587291 18.02871611 157.44512862 20 157 C24.46855455 157.94527116 27.23940797 159.31921062 30 163 C31.28988501 166.86965504 31.07358807 168.75879467 29.875 172.6875 C27.83565509 176.29034267 26.82692631 177.52141483 23 179 C20.66704816 179.04219168 18.33286899 179.04654786 16 179 C15.5373877 179.90540527 15.07477539 180.81081055 14.59814453 181.74365234 C-2.34415028 214.8788473 -2.34415028 214.8788473 -11 230 C-17.625 229.25 -17.625 229.25 -21 227 C-21.19298679 223.99927889 -21.20250311 221.18227599 -21.09765625 218.1875 C-20.87911843 205.6766711 -21.52582962 193.25299975 -22.22680664 180.76464844 C-22.44028566 176.95022604 -22.64356737 173.13535125 -22.84570312 169.3203125 C-22.978576 166.8801761 -23.1120179 164.4400706 -23.24609375 162 C-23.3065538 160.86675293 -23.36701385 159.73350586 -23.42930603 158.56591797 C-23.48929276 157.51291504 -23.54927948 156.45991211 -23.61108398 155.375 C-23.66215805 154.45460937 -23.71323212 153.53421875 -23.76585388 152.5859375 C-24.06327883 147.64027037 -24.06327883 147.64027037 -26.375 143.48828125 C-27.179375 142.90626953 -27.179375 142.90626953 -28 142.3125 C-31 140 -31 140 -32 138 C-32.69624573 130.92150171 -32.69624573 130.92150171 -29.875 127.1875 C-27 125 -27 125 -24.12890625 123.98046875 C-19.4809607 121.03851071 -18.15865796 117.07827409 -16.0625 112.125 C-15.65193359 111.22652344 -15.24136719 110.32804687 -14.81835938 109.40234375 C-12.10526965 103.38391837 -12.10526965 103.38391837 -13 97 C-14.30847473 94.8352697 -14.30847473 94.8352697 -16.01953125 92.828125 C-16.62990234 92.08175781 -17.24027344 91.33539063 -17.86914062 90.56640625 C-18.51044922 89.80199219 -19.15175781 89.03757812 -19.8125 88.25 C-20.44220703 87.47011719 -21.07191406 86.69023437 -21.72070312 85.88671875 C-22.33494141 85.14550781 -22.94917969 84.40429688 -23.58203125 83.640625 C-24.14124268 82.96547852 -24.7004541 82.29033203 -25.27661133 81.59472656 C-27.22710178 79.78985283 -28.36332149 79.23286062 -31 79 C-33.91862584 80.59773638 -33.91862584 80.59773638 -36.9375 82.9375 C-38.08941312 83.76803349 -39.24311319 84.59609327 -40.3984375 85.421875 C-40.98979492 85.84791016 -41.58115234 86.27394531 -42.19042969 86.71289062 C-45.09955628 88.7820913 -48.05882743 90.75869004 -51.0625 92.6875 C-52.10535156 93.37199219 -53.14820313 94.05648437 -54.22265625 94.76171875 C-57 96 -57 96 -59.24609375 95.51953125 C-61.45673857 93.60429554 -61.99686039 91.7096047 -63 89 C-62.43079834 88.63237549 -61.86159668 88.26475098 -61.27514648 87.88598633 C-58.66148327 86.19654118 -56.04948404 84.50453998 -53.4375 82.8125 C-52.54224609 82.23435547 -51.64699219 81.65621094 -50.72460938 81.06054688 C-45.72635334 77.81991934 -40.81510084 74.50729568 -36 71 C-36.62853257 67.89134747 -36.62853257 67.89134747 -38.5625 65.4375 C-40.78390776 64.12743902 -42.62713093 63.4575064 -45.0625 62.6875 C-48.2441822 61.54185697 -48.92803319 61.09595575 -51.0625 58.25 C-52.21092555 54.26879144 -52.15821761 51.98137305 -51 48 C-48.53259128 44.75711997 -46.86962494 43.28987498 -43 42 C-39.3139451 42 -37.85074644 42.68858396 -35 45 C-32.41766378 48.47622183 -31.10065195 52.25679752 -29.74609375 56.328125 C-29.12104414 58.2038679 -29.12104414 58.2038679 -27 59 C-24.56455892 53.45399954 -22.1292634 47.9079352 -19.6940918 42.36181641 C-18.86893464 40.48256788 -18.04374051 38.60333559 -17.21850586 36.72412109 C-16.41676973 34.89840466 -15.61514375 33.07263986 -14.81362915 31.24682617 C-14.01992232 29.43944054 -13.225633 27.63231059 -12.43075562 25.82543945 C-10.57718256 21.60914043 -8.73332081 17.38937158 -6.91845703 13.15625 C-6.59861343 12.41370972 -6.27876984 11.67116943 -5.94923401 10.90612793 C-5.35696942 9.52934139 -4.76845905 8.15093133 -4.18443298 6.77062988 C-3.01834157 4.06652178 -2.10364963 2.10364963 0 0 Z M-15 145 C-15.28626876 156.60978852 -14.53320557 168.16799439 -13.828125 179.75097656 C-13.62342191 183.151213 -13.43265468 186.55206498 -13.2421875 189.953125 C-13.11282822 192.11723842 -12.98264996 194.28130307 -12.8515625 196.4453125 C-12.79626373 197.46086212 -12.74096497 198.47641174 -12.68399048 199.5227356 C-12.59412369 200.93098099 -12.59412369 200.93098099 -12.50244141 202.36767578 C-12.45358795 203.19228302 -12.4047345 204.01689026 -12.35440063 204.8664856 C-12.10147512 207.29288296 -12.10147512 207.29288296 -10 210 C-9.41992188 208.90042969 -8.83984375 207.80085938 -8.2421875 206.66796875 C-7.45319088 205.17444436 -6.6641235 203.68095736 -5.875 202.1875 C-5.46483643 201.41011475 -5.05467285 200.63272949 -4.63208008 199.83178711 C-2.36607339 195.54632023 -0.05789521 191.29143131 2.3125 187.0625 C7.20842129 178.93088683 7.20842129 178.93088683 8.7734375 169.93359375 C6.22701295 163.56753238 -0.4154229 158.49669406 -5.1875 153.6875 C-5.69837158 153.171875 -6.20924316 152.65625 -6.7355957 152.125 C-9.35855833 149.5136036 -12.01537474 147.18133309 -15 145 Z " fill="#4AA87F" transform="translate(252,42)"/>
<path d="M0 0 C2.4375 0.6875 2.4375 0.6875 5 2 C6.1440391 4.55077197 6.20968025 6.31697646 5.38989258 8.98739624 C4.39154971 11.44844541 3.30662219 13.8531615 2.1875 16.26171875 C1.57769287 17.61871635 1.57769287 17.61871635 0.95556641 19.00312805 C-0.35037645 21.90380291 -1.67415863 24.79587324 -3 27.6875 C-10.32114503 43.75476101 -10.32114503 43.75476101 -17.1875 60.01953125 C-17.64310303 61.10278938 -17.64310303 61.10278938 -18.10791016 62.20793152 C-19.81819684 66.54257142 -20.29907371 69.50029181 -19 74 C-17.67990654 76.22141404 -17.67990654 76.22141404 -16 78.125 C-13.76683224 80.79835949 -12.77151181 82.62719615 -12 86 C-11.319375 86.9075 -10.63875 87.815 -9.9375 88.75 C-7.40882753 92.99164414 -7.6008382 95.13022608 -8 100 C-8.495 101.485 -8.495 101.485 -9 103 C-9.99 103.33 -10.98 103.66 -12 104 C-11.89300781 103.1440625 -11.78601563 102.288125 -11.67578125 101.40625 C-12.1030379 96.91748136 -14.24376578 94.68180258 -17.1875 91.5 C-18.16031683 90.40639283 -19.13297391 89.31264352 -20.10546875 88.21875 C-20.58419434 87.69023437 -21.06291992 87.16171875 -21.55615234 86.6171875 C-23.77311271 84.13407194 -25.8836056 81.5690784 -28 79 C-32.35828662 79.90050678 -35.51752679 82.19172398 -39.125 84.6875 C-40.46658558 85.59372583 -41.80903591 86.4986728 -43.15234375 87.40234375 C-44.43490178 88.26822036 -45.71745424 89.13410521 -47 90 C-48.88315001 91.26902721 -50.77686143 92.5227493 -52.6875 93.75 C-53.43386719 94.23984375 -54.18023437 94.7296875 -54.94921875 95.234375 C-57 96 -57 96 -59.14453125 95.453125 C-61.50837083 93.60186537 -61.98102413 91.77692733 -63 89 C-62.43079834 88.63237549 -61.86159668 88.26475098 -61.27514648 87.88598633 C-58.66148327 86.19654118 -56.04948404 84.50453998 -53.4375 82.8125 C-52.54224609 82.23435547 -51.64699219 81.65621094 -50.72460938 81.06054688 C-45.72635334 77.81991934 -40.81510084 74.50729568 -36 71 C-36.62853257 67.89134747 -36.62853257 67.89134747 -38.5625 65.4375 C-40.78390776 64.12743902 -42.62713093 63.4575064 -45.0625 62.6875 C-48.2441822 61.54185697 -48.92803319 61.09595575 -51.0625 58.25 C-52.21092555 54.26879144 -52.15821761 51.98137305 -51 48 C-48.53259128 44.75711997 -46.86962494 43.28987498 -43 42 C-39.3139451 42 -37.85074644 42.68858396 -35 45 C-32.41766378 48.47622183 -31.10065195 52.25679752 -29.74609375 56.328125 C-29.12104414 58.2038679 -29.12104414 58.2038679 -27 59 C-24.56455892 53.45399954 -22.1292634 47.9079352 -19.6940918 42.36181641 C-18.86893464 40.48256788 -18.04374051 38.60333559 -17.21850586 36.72412109 C-16.41676973 34.89840466 -15.61514375 33.07263986 -14.81362915 31.24682617 C-14.01992232 29.43944054 -13.225633 27.63231059 -12.43075562 25.82543945 C-10.57718256 21.60914043 -8.73332081 17.38937158 -6.91845703 13.15625 C-6.59861343 12.41370972 -6.27876984 11.67116943 -5.94923401 10.90612793 C-5.35696942 9.52934139 -4.76845905 8.15093133 -4.18443298 6.77062988 C-3.01834157 4.06652178 -2.10364963 2.10364963 0 0 Z " fill="#55AD75" transform="translate(252,42)"/>
<path d="M0 0 C0.33 0 0.66 0 1 0 C1.05534912 0.74572266 1.11069824 1.49144531 1.16772461 2.25976562 C1.422259 5.67333406 1.67985533 9.08666497 1.9375 12.5 C2.02451172 13.67304688 2.11152344 14.84609375 2.20117188 16.0546875 C2.08513686 26.11197248 2.08513686 26.11197248 5 35 C5.50789062 34.04480469 6.01578125 33.08960938 6.5390625 32.10546875 C10.24671232 25.13938947 13.9707805 18.1844187 17.7734375 11.26953125 C18.89253254 9.19884903 19.96107492 7.11183368 21 5 C21.66 5 22.32 5 23 5 C22.67 6.65 22.34 8.3 22 10 C22.99 9.34 23.98 8.68 25 8 C26.30319594 13.70785259 25.59333293 17.01892607 22.8125 22 C22.46171387 22.66281982 22.11092773 23.32563965 21.74951172 24.00854492 C20.96030378 25.49820438 20.1636076 26.98391242 19.36083984 28.46630859 C17.83192226 31.31293699 16.34547908 34.17955746 14.86328125 37.05078125 C12.76169566 41.11669312 10.65878108 45.18178675 8.5390625 49.23828125 C8.09771973 50.08430908 7.65637695 50.93033691 7.20166016 51.80200195 C6 54 6 54 4 57 C1.69 56.67 -0.62 56.34 -3 56 C-3.94137255 53.17588235 -4.11725382 51.47081968 -4.09765625 48.55078125 C-4.09443359 47.70322266 -4.09121094 46.85566406 -4.08789062 45.98242188 C-4.07951172 45.10134766 -4.07113281 44.22027344 -4.0625 43.3125 C-4.05798828 42.41982422 -4.05347656 41.52714844 -4.04882812 40.60742188 C-4.03704983 38.40488013 -4.02060164 36.20247401 -4 34 C-3.34 34.99 -2.68 35.98 -2 37 C-0.515 36.505 -0.515 36.505 1 36 C0.9278125 34.99324219 0.855625 33.98648438 0.78125 32.94921875 C0.03984909 21.95243268 -0.10886168 11.01922112 0 0 Z " fill="#42A17B" transform="translate(237,215)"/>
<path d="M0 0 C3.20447947 2.4381909 4.69295309 4.1511056 6.0625 7.9375 C5.97564714 12.19329033 4.85773486 13.86346174 2 17 C0.75089844 17.31195313 -0.49820312 17.62390625 -1.78515625 17.9453125 C-5.93322995 19.40292246 -7.20445699 21.46453365 -9.1875 25.32421875 C-10.15260059 27.43289744 -11.08942729 29.55470787 -12 31.6875 C-12.48855469 32.77095703 -12.97710937 33.85441406 -13.48046875 34.97070312 C-14.67863366 37.63720739 -15.85027976 40.31233816 -17 43 C-17.79019531 42.95875 -18.58039063 42.9175 -19.39453125 42.875 C-20.25433594 42.91625 -21.11414063 42.9575 -22 43 C-23.70532323 44.94009522 -23.70532323 44.94009522 -25 47 C-25.66 47 -26.32 47 -27 47 C-26.41263383 41.51207134 -24.46565899 37.0782386 -22.1875 32.125 C-21.84396484 31.36058594 -21.50042969 30.59617187 -21.14648438 29.80859375 C-19.146186 25.38767163 -17.03119925 21.07735439 -14.67895508 16.83203125 C-13.84361183 14.57801623 -14.06124701 13.22090651 -14.5 10.875 C-15 7 -15 7 -13.3125 3.625 C-9.05070746 -1.21271045 -6.3329994 -1.66657879 0 0 Z " fill="#51AB78" transform="translate(274,87)"/>
<path d="M0 0 C0.99 0.33 1.98 0.66 3 1 C4.140625 3.58984375 4.140625 3.58984375 5.25 6.9375 C9.05960219 17.28107864 14.5245993 24.06805772 22.9609375 31.08984375 C25 33 25 33 26 36 C24.5625 38.1875 24.5625 38.1875 23 40 C16.05243551 39.06875679 11.09401632 34.42465048 6.625 29.25 C6.08875 28.5075 5.5525 27.765 5 27 C4.5359375 26.59007812 4.071875 26.18015625 3.59375 25.7578125 C1.37000417 23.30515166 0.24414231 20.631609 -1.125 17.625 C-1.64320312 16.50351563 -2.16140625 15.38203125 -2.6953125 14.2265625 C-3.83547692 11.40687445 -4.68166549 9.01634996 -5 6 C-2.80597015 1.40298507 -2.80597015 1.40298507 0 0 Z " fill="#59AD76" transform="translate(70,165)"/>
<path d="M0 0 C21.57273033 1.2042194 46.7139983 17.02002969 65.0625 27.5625 C65.77720459 27.96782959 66.49190918 28.37315918 67.22827148 28.79077148 C69.16015625 29.94140625 69.16015625 29.94140625 72 32 C72 32.99 72 33.98 72 35 C70.88625 34.5359375 70.88625 34.5359375 69.75 34.0625 C67.13499382 32.96236457 67.13499382 32.96236457 64.8125 32.5625 C63 32 63 32 61 29 C59.34561387 28.30341637 57.67745682 27.63903117 56 27 C54.66666667 26 53.33333333 25 52 24 C51.29875 23.7215625 50.5975 23.443125 49.875 23.15625 C45.40643423 21.35910942 41.17222984 19.10615394 36.8828125 16.921875 C32.23507579 14.5716987 27.74338953 12.46051799 22.6875 11.125 C19.78272437 10.23879726 17.5793135 9.33403118 14.9375 7.9375 C11.64471149 6.21087211 8.7346814 5.37346814 5 5 C5 4.34 5 3.68 5 3 C2.69 2.67 0.38 2.34 -2 2 C-1.34 1.34 -0.68 0.68 0 0 Z " fill="#60AB65" transform="translate(37,46)"/>
<path d="M0 0 C0.66 0.33 1.32 0.66 2 1 C0.48076309 5.04225534 -1.99475053 6.66878359 -5.5 9.0625 C-8.75792162 11.29589101 -10.79617231 12.69425846 -13 16 C-13.99 16 -14.98 16 -16 16 C-16.2371875 16.56203125 -16.474375 17.1240625 -16.71875 17.703125 C-18.28947697 20.51894042 -20.21471464 22.47955416 -22.5 24.75 C-23.2940625 25.54921875 -24.088125 26.3484375 -24.90625 27.171875 C-27 29 -27 29 -29 29 C-29.66 30.32 -30.32 31.64 -31 33 C-31.66 33 -32.32 33 -33 33 C-33.061875 33.556875 -33.12375 34.11375 -33.1875 34.6875 C-35.05024659 39.98916336 -40.74217718 43.53433026 -45 47 C-45 43.00166512 -43.64185788 42.18841982 -40.9375 39.3125 C-40.10734375 38.41917969 -39.2771875 37.52585938 -38.421875 36.60546875 C-37.62265625 35.74566406 -36.8234375 34.88585937 -36 34 C-34.89041674 32.71298338 -33.78575243 31.42169904 -32.6875 30.125 C-24.55695622 20.8302675 -15.68769967 12.64407864 -6 5 C-4.76688856 3.98393525 -3.53689977 2.96404595 -2.3125 1.9375 C-1.549375 1.298125 -0.78625 0.65875 0 0 Z " fill="#5DAA68" transform="translate(197,39)"/>
<path d="M0 0 C1.28583984 0.433125 1.28583984 0.433125 2.59765625 0.875 C2.59765625 1.535 2.59765625 2.195 2.59765625 2.875 C3.11972656 3.04515625 3.64179687 3.2153125 4.1796875 3.390625 C12.07061981 5.98869028 19.89565949 8.75818476 27.59765625 11.875 C27.26765625 12.865 26.93765625 13.855 26.59765625 14.875 C19.35045606 12.58043192 12.40406542 9.78393822 5.41015625 6.8125 C3.31335402 5.92376364 1.2157223 5.03698129 -0.8828125 4.15234375 C-1.79957764 3.76296631 -2.71634277 3.37358887 -3.66088867 2.97241211 C-8.09267636 1.19835514 -11.58588295 -0.125 -16.40234375 -0.125 C-16.74007812 0.91140625 -17.0778125 1.9478125 -17.42578125 3.015625 C-17.87614112 4.3854696 -18.32667089 5.75525834 -18.77734375 7.125 C-18.9990625 7.80691406 -19.22078125 8.48882812 -19.44921875 9.19140625 C-20.55807988 12.5506032 -21.6911262 15.77241865 -23.40234375 18.875 C-24.35068279 14.03847091 -24.45787813 11.32865781 -22.40234375 6.875 C-22.02641309 4.8825675 -21.6825483 2.8831326 -21.40234375 0.875 C-20.74234375 0.875 -20.08234375 0.875 -19.40234375 0.875 C-19.40234375 -0.115 -19.40234375 -1.105 -19.40234375 -2.125 C-13.14348896 -5.2544274 -6.15035795 -1.99695952 0 0 Z " fill="#60AC66" transform="translate(49.40234375,64.125)"/>
<path d="M0 0 C0.66 0.33 1.32 0.66 2 1 C2.74359696 54.33306168 2.74359696 54.33306168 -4 73 C-4.33 73 -4.66 73 -5 73 C-4.62922945 66.70968585 -3.95825626 60.5659435 -2.90742493 54.35772705 C-0.95981554 42.63895531 -0.46024731 31.11017612 -0.3125 19.25 C-0.27919702 17.36586378 -0.24469635 15.48174835 -0.20898438 13.59765625 C-0.1256036 9.065223 -0.05812137 4.53282458 0 0 Z " fill="#469C6F" transform="translate(320,139)"/>
<path d="M0 0 C5.49917493 5.49917493 4.23893755 17.52702304 4.27575684 24.96463013 C4.27420712 26.34418545 4.26918663 27.72374113 4.26074219 29.10327148 C4.24995572 31.19609159 4.26074353 33.28806392 4.2734375 35.38085938 C4.2800029 42.7954889 3.89076867 49.80409622 2 57 C1.67 57 1.34 57 1 57 C1.00523682 56.30366455 1.01047363 55.6073291 1.01586914 54.88989258 C1.13390073 36.55913851 0.75806859 18.31461451 0 0 Z " fill="#3F9D7A" transform="translate(217,244)"/>
<path d="M0 0 C1.23595285 3.70785855 0.7148246 5.95440074 0.125 9.8125 C-1.94635044 23.42214761 -2.2254563 37.13737399 -2.5625 50.875 C-2.60583058 52.54558044 -2.64944868 54.21615345 -2.69335938 55.88671875 C-2.79887676 59.92440145 -2.90054118 63.96216371 -3 68 C-3.33 68 -3.66 68 -4 68 C-4.85335646 64.30226326 -5.12861784 60.88151238 -5.1328125 57.08984375 C-5.13490723 55.94467285 -5.13700195 54.79950195 -5.13916016 53.61962891 C-5.1344873 52.40452637 -5.12981445 51.18942383 -5.125 49.9375 C-5.12161621 48.68630371 -5.11823242 47.43510742 -5.11474609 46.14599609 C-4.93258478 13.05618188 -4.93258478 13.05618188 -2 1 C-1.34 0.67 -0.68 0.34 0 0 Z " fill="#53A561" transform="translate(20,108)"/>
<path d="M0 0 C2.475 0.495 2.475 0.495 5 1 C5 1.66 5 2.32 5 3 C5.66 3.33 6.32 3.66 7 4 C10.63001062 8.08376194 12.29549985 11.88649954 14 17 C14.66 17 15.32 17 16 17 C16 17.66 16 18.32 16 19 C16.99 19.33 17.98 19.66 19 20 C18.67 20.99 18.34 21.98 18 23 C18.94016475 25.04784507 18.94016475 25.04784507 20.375 27.0625 C23 31 23 31 24 33 C24.66 33 25.32 33 26 33 C26.144375 34.0725 26.28875 35.145 26.4375 36.25 C26.83749442 38.91662949 27.27591924 41.41399729 28 44 C25 43 25 43 23.2734375 39.96484375 C22.63222456 38.62638791 22.00001278 37.28359698 21.375 35.9375 C18.49599859 29.96445395 15.49463722 24.09585942 12.25 18.3125 C11.70351807 17.32527954 11.70351807 17.32527954 11.14599609 16.31811523 C9.49222216 13.38752499 7.84634027 10.80792534 5.734375 8.16796875 C4 6 4 6 4 4 C3.34 4 2.68 4 2 4 C2 3.34 2 2.68 2 2 C1.34 2 0.68 2 0 2 C0 1.34 0 0.68 0 0 Z " fill="#59AC6C" transform="translate(257,18)"/>
<path d="M0 0 C2.64429723 2.64429723 2.38041289 4.10941391 2.6328125 7.80859375 C2.7167627 9.0188623 2.80071289 10.22913086 2.88720703 11.47607422 C2.96567871 12.78334473 3.04415039 14.09061523 3.125 15.4375 C3.16735779 16.0992926 3.20971558 16.76108521 3.25335693 17.44293213 C4.13511976 31.29699938 4.21999886 45.11976449 4 59 C3.67 59 3.34 59 3 59 C2.97494385 58.42967041 2.9498877 57.85934082 2.92407227 57.27172852 C2.80843451 54.70173843 2.68556376 52.13214473 2.5625 49.5625 C2.52318359 48.66466797 2.48386719 47.76683594 2.44335938 46.84179688 C2.40146484 45.98779297 2.35957031 45.13378906 2.31640625 44.25390625 C2.27974854 43.46314697 2.24309082 42.6723877 2.20532227 41.85766602 C2.19436743 39.98598559 2.19436743 39.98598559 1 39 C0.75142952 36.40995694 0.57026073 33.84687628 0.4375 31.25 C0.3950415 30.46318848 0.35258301 29.67637695 0.30883789 28.86572266 C-0.15827648 19.24711417 -0.0854451 9.62681496 0 0 Z " fill="#439E70" transform="translate(229,187)"/>
<path d="M0 0 C-0.75 1.9375 -0.75 1.9375 -2 4 C-4.125 4.75 -4.125 4.75 -6 5 C-6 5.66 -6 6.32 -6 7 C-12.625 11 -12.625 11 -16 11 C-16.33 11.99 -16.66 12.98 -17 14 C-19.0390625 15.2109375 -19.0390625 15.2109375 -21.625 16.375 C-26.17036925 18.52360127 -30.00420323 20.95971985 -34 24 C-34.66 23.67 -35.32 23.34 -36 23 C-32.0679587 18.73708243 -27.83094865 15.71039234 -22.9375 12.625 C-22.19105225 12.14893311 -21.44460449 11.67286621 -20.67553711 11.18237305 C-3.04274025 0 -3.04274025 0 0 0 Z " fill="#5FAD6A" transform="translate(246,8)"/>
<path d="M0 0 C0.556875 0.28875 1.11375 0.5775 1.6875 0.875 C3.99242528 2.05152958 3.99242528 2.05152958 6.5 2.875 C9 4 9 4 10.5546875 5.73046875 C14.1515851 9.06880343 18.31658442 11.13100653 22.625 13.4375 C23.47707031 13.90220703 24.32914063 14.36691406 25.20703125 14.84570312 C31.07412693 18.02778149 37.01325462 21.04992817 43 24 C40.64575234 24.82478069 39.37382745 25.11855799 36.96386719 24.35424805 C36.24875977 23.99371338 35.53365234 23.63317871 34.796875 23.26171875 C33.98855225 22.85848389 33.18022949 22.45524902 32.34741211 22.03979492 C31.49026611 21.5935376 30.63312012 21.14728027 29.75 20.6875 C28.86771729 20.23544189 27.98543457 19.78338379 27.07641602 19.31762695 C21.25473194 16.28917778 15.53927265 13.105786 9.9375 9.6875 C8.9479834 9.09424927 8.9479834 9.09424927 7.93847656 8.48901367 C4.19254857 6.12876242 1.9328978 4.00031963 0 0 Z " fill="#449872" transform="translate(83,322)"/>
<path d="M0 0 C0.99 0.66 1.98 1.32 3 2 C2.50298584 2.30591064 2.00597168 2.61182129 1.49389648 2.92700195 C-8.08697047 8.84521201 -17.51528667 14.80133174 -26.36547852 21.78442383 C-27.85606783 22.93052888 -29.42291916 23.9761693 -31 25 C-31.99 24.67 -32.98 24.34 -34 24 C-32.65582719 21.31165438 -30.67530902 20.68021485 -28.11328125 19.28515625 C-24.81768093 17.28099265 -21.89755469 14.83173155 -18.91796875 12.390625 C-17 11 -17 11 -15 11 C-15 10.34 -15 9.68 -15 9 C-14.195625 8.71125 -13.39125 8.4225 -12.5625 8.125 C-9.8673532 7.26737432 -9.8673532 7.26737432 -9 5 C-8.01 4.67 -7.02 4.34 -6 4 C-5.67 3.34 -5.34 2.68 -5 2 C-2.625 0.75 -2.625 0.75 0 0 Z " fill="#5FAE6B" transform="translate(243,25)"/>
<path d="M0 0 C0.33 0 0.66 0 1 0 C1.29862397 7.49877978 0.6547456 14.66838993 -1 22 C-1.33 22.33 -1.66 22.66 -2 23 C-2.15829958 24.39244998 -2.27665078 25.78953608 -2.375 27.1875 C-2.77964835 31.34012082 -3.85956015 34.37055851 -6 38 C-6.33 38 -6.66 38 -7 38 C-7.49564099 30.86066065 -5.67150224 24.23084144 -4.0625 17.3125 C-3.64581055 15.47848633 -3.64581055 15.47848633 -3.22070312 13.60742188 C-2.18481514 9.06199532 -1.1475384 4.51873004 0 0 Z " fill="#3E9974" transform="translate(202,309)"/>
<path d="M0 0 C0.99 0.33 1.98 0.66 3 1 C2.56429688 1.4125 2.12859375 1.825 1.6796875 2.25 C-1.5396063 5.37173944 -4.44706475 8.47587814 -7.0625 12.125 C-9.69186814 15.74831159 -12.37707869 18.36514814 -16 21 C-16.66 21 -17.32 21 -18 21 C-18 21.66 -18 22.32 -18 23 C-18.66 23 -19.32 23 -20 23 C-20.33 23.99 -20.66 24.98 -21 26 C-21.66 25.67 -22.32 25.34 -23 25 C-20.84441404 21.31754065 -18.71622209 18.61512298 -15.4375 15.875 C-9.74725152 11.10982027 -4.93393994 5.52347321 0 0 Z " fill="#469B75" transform="translate(258,285)"/>
<path d="M0 0 C4.34917252 1.52321249 6.37620387 4.85622236 8.875 8.5 C9.31046143 9.12567871 9.74592285 9.75135742 10.19458008 10.39599609 C11.47728679 12.25479147 12.74221321 14.12427259 14 16 C14.66644531 16.99257813 15.33289063 17.98515625 16.01953125 19.0078125 C20.09372455 25.40057483 20.09372455 25.40057483 19.64453125 28.2734375 C19.32548828 29.12808594 19.32548828 29.12808594 19 30 C16.21688265 27.74700024 15.20329028 25.23854566 13.87890625 21.97265625 C11.96188998 17.67001973 9.70956067 13.25702991 5.875 10.4375 C3.00081343 8.23395696 2.26649244 5.31700401 1 2 C0.67 1.34 0.34 0.68 0 0 Z " fill="#5AA464" transform="translate(264,0)"/>
<path d="M0 0 C4.91399044 4.64099097 9.18391622 9.06328787 10 16 C10.66 16 11.32 16 12 16 C12.36590746 17.72672034 12.71722195 19.45653655 13.0625 21.1875 C13.25972656 22.15042969 13.45695312 23.11335938 13.66015625 24.10546875 C14.00423947 27.03610862 13.74164697 29.16307068 13 32 C12.67 32 12.34 32 12 32 C11.76925781 31.03320312 11.53851563 30.06640625 11.30078125 29.0703125 C8.73616287 18.69295822 5.23548463 9.77586726 -1 1 C-0.67 0.67 -0.34 0.34 0 0 Z " fill="#57AA69" transform="translate(105,138)"/>
<path d="M0 0 C7.17702671 0.47957091 13.92376223 1.81895125 20.8984375 3.57421875 C24.16098381 4.02209979 25.32854093 3.82264572 28 2 C27.34 3.65 26.68 5.3 26 7 C19.8673169 7.26451982 14.90589705 6.43864372 9.0625 4.625 C8.29615234 4.40328125 7.52980469 4.1815625 6.74023438 3.953125 C4.80494971 3.3703112 2.89883881 2.69239426 1 2 C0.67 1.34 0.34 0.68 0 0 Z " fill="#3E9D7B" transform="translate(167,346)"/>
<path d="M0 0 C4.82092617 1.58534303 8.47940834 4.31496979 12.5 7.3125 C13.15097656 7.78623047 13.80195312 8.25996094 14.47265625 8.74804688 C18.31118837 11.58235695 21.71844672 14.53543701 25 18 C24.01 18.33 23.02 18.66 22 19 C19.58984375 17.3828125 19.58984375 17.3828125 16.9375 15.125 C13.66229684 12.26898182 13.66229684 12.26898182 10 10 C10 9.34 10 8.68 10 8 C9.278125 7.773125 8.55625 7.54625 7.8125 7.3125 C4.45316713 5.74481133 2.46196152 3.74332855 0 1 C0 0.67 0 0.34 0 0 Z " fill="#61B06D" transform="translate(110,80)"/>
<path d="M0 0 C0.33 0 0.66 0 1 0 C1.17387838 7.00584959 0.5176452 13.63609505 -0.5 20.5625 C-0.64308594 21.57119141 -0.78617188 22.57988281 -0.93359375 23.61914062 C-1.2835185 26.08027802 -1.63908326 28.5404548 -2 31 C-3.51586914 29.6965332 -3.51586914 29.6965332 -5 28 C-4.74609375 24.85546875 -4.74609375 24.85546875 -4 21 C-3.83101963 19.58102787 -3.67649013 18.16027316 -3.53515625 16.73828125 C-3.45716797 16.01189453 -3.37917969 15.28550781 -3.29882812 14.53710938 C-3.14008768 13.04285015 -2.98651587 11.54803358 -2.83789062 10.05273438 C-2.42973105 6.33284103 -2.01851999 3.20091664 0 0 Z " fill="#44A383" transform="translate(219,293)"/>
<path d="M0 0 C0.99 0 1.98 0 3 0 C4.15866738 1.84023642 5.30723954 3.68764949 6.40234375 5.56640625 C8.87666694 9.33536309 11.94081998 12.51311316 15.01171875 15.80078125 C17 18 17 18 19 21 C10.89052082 19.55439719 6.00847622 10.5524578 1.50390625 4.35546875 C0 2 0 2 0 0 Z " fill="#58A76D" transform="translate(43,193)"/>
<path d="M0 0 C0.33 0 0.66 0 1 0 C3.39553142 12.35790018 1.92950924 25.5180188 1 38 C0.67 38 0.34 38 0 38 C-1.28313925 20.98359953 -1.28313925 20.98359953 -0.2578125 13.359375 C0.22709784 8.92171064 0.07627656 4.45794102 0 0 Z " fill="#398C60" transform="translate(204,259)"/>
<path d="M0 0 C3.75248225 1.25082742 4.0515262 2.36825387 5.9375 5.75 C9.43984594 12.34916969 9.43984594 12.34916969 15 17 C14.67 17.99 14.34 18.98 14 20 C9.32806015 16.8464406 6.54900105 13.09015555 3.625 8.3125 C3.26728516 7.72960205 2.90957031 7.1467041 2.54101562 6.54614258 C0 2.27830128 0 2.27830128 0 0 Z " fill="#4DA374" transform="translate(96,271)"/>
<path d="M0 0 C4.4671304 1.47898236 6.09446865 4.92056839 8.25 8.8125 C8.61351562 9.42931641 8.97703125 10.04613281 9.3515625 10.68164062 C11.37060181 14.25291129 12.47062453 16.88203539 12 21 C8.51963761 16.69199045 6.23366555 11.80693496 3.71875 6.8984375 C2.16079082 3.79465079 2.16079082 3.79465079 -1 2 C-0.67 1.34 -0.34 0.68 0 0 Z " fill="#49A379" transform="translate(168,223)"/>
<path d="M0 0 C4.31072589 1.54744006 6.53747895 4.8416386 9.1875 8.375 C9.63802734 8.9525 10.08855469 9.53 10.55273438 10.125 C12.72442747 12.97717863 14.54558926 15.38253408 15 19 C10.46200294 15.5011385 7.27402379 12.01637955 4.125 7.25 C3.7228125 6.66089844 3.320625 6.07179688 2.90625 5.46484375 C0 1.16477997 0 1.16477997 0 0 Z " fill="#4C9F6F" transform="translate(46,264)"/>
<path d="M0 0 C0.66 0 1.32 0 2 0 C1.78364856 3.78615018 1.08196714 4.91993907 -1.6875 7.625 C-4.99198188 10.1491464 -8.72468551 13 -13 13 C-13 12.34 -13 11.68 -13 11 C-11.171875 9.66796875 -11.171875 9.66796875 -8.75 8.1875 C-5.06200185 5.83111814 -2.61026724 3.54996344 0 0 Z " fill="#449E77" transform="translate(162,285)"/>
<path d="M0 0 C0.99 0.33 1.98 0.66 3 1 C-1.16968833 6.8148011 -5.31720725 12.58552088 -10 18 C-10.33 17.01 -10.66 16.02 -11 15 C-9.44712844 12.68250157 -7.88705253 10.58455865 -6.125 8.4375 C-2.75323524 4.42414988 -2.75323524 4.42414988 0 0 Z " fill="#439A72" transform="translate(274,264)"/>
<path d="M0 0 C0.66 0.33 1.32 0.66 2 1 C0.93166187 3.71940615 0.01879963 4.98526515 -2.3125 6.8125 C-5.65397175 9.53230259 -7.59866383 12.43230055 -10 16 C-10.64428711 14.18847656 -10.64428711 14.18847656 -11 12 C-9.25251356 9.71732735 -7.56837316 7.77770249 -5.5625 5.75 C-5.03333984 5.19570312 -4.50417969 4.64140625 -3.95898438 4.0703125 C-2.65043595 2.70282046 -1.3266196 1.34996811 0 0 Z " fill="#5BAA6A" transform="translate(53,119)"/>
<path d="M0 0 C3.87754877 3.41011824 4.3716226 7.01631721 5 12 C5.14894046 16.00697886 5.1220503 19.99268184 5 24 C4.67 24 4.34 24 4 24 C3.32698711 20.75128084 2.6627049 17.50083621 2 14.25 C1.80921875 13.32960937 1.6184375 12.40921875 1.421875 11.4609375 C1.24140625 10.57148438 1.0609375 9.68203125 0.875 8.765625 C0.70742187 7.94868164 0.53984375 7.13173828 0.3671875 6.29003906 C0 4 0 4 0 0 Z " fill="#409D72" transform="translate(212,219)"/>
<path d="M0 0 C2.60368168 3.90552252 4.51692327 8.06615425 6.5625 12.28515625 C7.85856095 15.05457606 7.85856095 15.05457606 10 17 C9.67 17.99 9.34 18.98 9 20 C1 10.91891892 1 10.91891892 1 6 C0.34 6 -0.32 6 -1 6 C-0.67 4.02 -0.34 2.04 0 0 Z " fill="#57AA6D" transform="translate(52,175)"/>
<path d="M0 0 C1.0625 1.8125 1.0625 1.8125 2 4 C1.67 4.99 1.34 5.98 1 7 C0.77202438 9.73289293 0.58331813 12.45042204 0.4375 15.1875 C0.39431641 15.93708984 0.35113281 16.68667969 0.30664062 17.45898438 C0.20077315 19.30578375 0.0999024 21.15286834 0 23 C-2 21 -2 21 -2.265625 17.734375 C-2.26046875 16.41953125 -2.2553125 15.1046875 -2.25 13.75 C-2.25515625 12.44546875 -2.2603125 11.1409375 -2.265625 9.796875 C-2.01185975 6.16952464 -1.31856654 3.36967005 0 0 Z " fill="#5DAF72" transform="translate(37,148)"/>
<path d="M0 0 C0.33 0.99 0.66 1.98 1 3 C-0.546875 5.33984375 -0.546875 5.33984375 -2.75 7.9375 C-3.82507813 9.21947266 -3.82507813 9.21947266 -4.921875 10.52734375 C-5.95054687 11.75130859 -5.95054687 11.75130859 -7 13 C-8.01034139 14.32551426 -9.0145291 15.65589253 -10 17 C-10.99 16.67 -11.98 16.34 -13 16 C-8.71 10.72 -4.42 5.44 0 0 Z " fill="#439770" transform="translate(279,284)"/>
<path d="M0 0 C0.33 0.99 0.66 1.98 1 3 C-2.96 6.96 -6.92 10.92 -11 15 C-11.99 14.67 -12.98 14.34 -14 14 C-9.38 9.38 -4.76 4.76 0 0 Z " fill="#40966E" transform="translate(263,303)"/>
<path d="M0 0 C4.18690034 1.53110125 5.8844356 4.24400059 8.3125 7.875 C9.03050781 8.92429688 9.74851563 9.97359375 10.48828125 11.0546875 C12 14 12 14 11.59448242 16.18408203 C11.39830322 16.78333496 11.20212402 17.38258789 11 18 C9.34990683 15.56528902 7.70481602 13.12744835 6.0625 10.6875 C5.35963867 9.65206055 5.35963867 9.65206055 4.64257812 8.59570312 C4.19462891 7.92861328 3.74667969 7.26152344 3.28515625 6.57421875 C2.87144775 5.96151123 2.45773926 5.34880371 2.03149414 4.7175293 C1 3 1 3 0 0 Z " fill="#4CA46A" transform="translate(175,143)"/>
<path d="M0 0 C0.67578125 1.65234375 0.67578125 1.65234375 1 4 C-0.14453125 6.69140625 -0.14453125 6.69140625 -1.8125 9.5625 C-2.35519531 10.51253906 -2.89789063 11.46257812 -3.45703125 12.44140625 C-4.59172117 14.32298068 -5.78119307 16.17178961 -7 18 C-7.66 18 -8.32 18 -9 18 C-7.45614871 13.85967154 -5.48971062 10.06446947 -3.375 6.1875 C-3.05015625 5.59001953 -2.7253125 4.99253906 -2.390625 4.37695312 C-1.59620849 2.91662865 -0.79844624 1.45812509 0 0 Z " fill="#46986F" transform="translate(301,249)"/>
<path d="M0 0 C1.1233655 3.3700965 0.89663584 4.03492305 -0.25 7.25 C-0.52972656 8.03761719 -0.80945313 8.82523438 -1.09765625 9.63671875 C-2.30700606 12.80406348 -3.61693187 15.90456181 -5 19 C-5.33 19 -5.66 19 -6 19 C-5.45018084 12.95198929 -4.09570426 7.69398894 -2 2 C-1.34 2 -0.68 2 0 2 C0 1.34 0 0.68 0 0 Z " fill="#3F9A6E" transform="translate(299,214)"/>
<path d="M0 0 C3 3 3 3 3.328125 5.8203125 C3.30234375 6.91085938 3.2765625 8.00140625 3.25 9.125 C3.22421875 10.27613281 3.1984375 11.42726563 3.171875 12.61328125 C2.96030521 16.78216777 2.56080287 20.86407887 2 25 C1.67 25 1.34 25 1 25 C0.67 16.75 0.34 8.5 0 0 Z " fill="#3B9667" transform="translate(181,249)"/>
<path d="M0 0 C1.43410153 3.78819273 0.51009497 6.06521279 -0.9375 9.75 C-1.31777344 10.73484375 -1.69804687 11.7196875 -2.08984375 12.734375 C-2.39019531 13.48203125 -2.69054687 14.2296875 -3 15 C-3.66 15 -4.32 15 -5 15 C-5.33 15.66 -5.66 16.32 -6 17 C-5.34 13.7 -4.68 10.4 -4 7 C-3.34 7 -2.68 7 -2 7 C-2.226875 6.401875 -2.45375 5.80375 -2.6875 5.1875 C-2.790625 4.465625 -2.89375 3.74375 -3 3 C-1.5625 1.25 -1.5625 1.25 0 0 Z " fill="#419A70" transform="translate(311,225)"/>
<path d="M0 0 C0.99 0 1.98 0 3 0 C3.185625 0.639375 3.37125 1.27875 3.5625 1.9375 C4.94246056 4.42126213 4.94246056 4.42126213 8.625 4.75 C9.73875 4.8325 10.8525 4.915 12 5 C11.01 6.32 10.02 7.64 9 9 C6.0280615 7.87548273 3.66559313 6.77706209 1 5 C0.3125 2.375 0.3125 2.375 0 0 Z " fill="#62B073" transform="translate(153,89)"/>
<path d="M0 0 C2.20991419 3.31487129 3.08491625 6.17877112 4.1875 10 C4.55230469 11.2375 4.91710937 12.475 5.29296875 13.75 C6 17 6 17 5 20 C0.68966091 13.53449136 -0.26617818 7.58607823 0 0 Z " fill="#519E65" transform="translate(7,208)"/>
<path d="M0 0 C0.33 0.99 0.66 1.98 1 3 C1.66 3 2.32 3 3 3 C4.823321 9.15370839 5.2361959 14.59646678 5 21 C2.7419395 17.61290925 2.20005092 15.03357841 1.375 11.0625 C1.11460937 9.83660156 0.85421875 8.61070313 0.5859375 7.34765625 C0 4 0 4 0 0 Z " fill="#479A69" transform="translate(312,96)"/>
<path d="M0 0 C6.35945776 1.24086981 9.18350306 5.14469324 13 10 C12.67 10.66 12.34 11.32 12 12 C2.22095672 4.88610478 2.22095672 4.88610478 0 0 Z " fill="#5CAF6C" transform="translate(108,124)"/>
<path d="M0 0 C0.33 0.99 0.66 1.98 1 3 C1.66 3.33 2.32 3.66 3 4 C2.67 4.763125 2.34 5.52625 2 6.3125 C0.82563314 8.99069135 0.82563314 8.99069135 1 12 C-0.98 12.99 -0.98 12.99 -3 14 C-2.48594831 9.03083364 -1.76615118 4.70973649 0 0 Z " fill="#62AC69" transform="translate(13,66)"/>
<path d="M0 0 C0.33 0 0.66 0 1 0 C4.44419134 13.6332574 4.44419134 13.6332574 4 20 C1.38569394 17.38569394 1.14500477 15.27336201 0.3125 11.6875 C0.04050781 10.55699219 -0.23148438 9.42648438 -0.51171875 8.26171875 C-0.98399399 5.10692012 -0.85072709 3.04320496 0 0 Z " fill="#57A86C" transform="translate(21,198)"/>
<path d="M0 0 C-1.47797262 3.67056937 -3.47615477 5.41085783 -6.625 7.75 C-7.44226563 8.36359375 -8.25953125 8.9771875 -9.1015625 9.609375 C-9.72804687 10.06828125 -10.35453125 10.5271875 -11 11 C-11.33 9.68 -11.66 8.36 -12 7 C-11.401875 6.7525 -10.80375 6.505 -10.1875 6.25 C-7.70245261 4.82997292 -6.68637514 3.27294041 -5 1 C-2 0 -2 0 0 0 Z " fill="#5CAC67" transform="translate(208,51)"/>
<path d="M0 0 C2.64 0.33 5.28 0.66 8 1 C7.67 1.99 7.34 2.98 7 4 C5.35 3.67 3.7 3.34 2 3 C1.71125 3.804375 1.4225 4.60875 1.125 5.4375 C0 8 0 8 -2 9 C-1.125 2.25 -1.125 2.25 0 0 Z " fill="#62AE67" transform="translate(22,42)"/>
<path d="M0 0 C2.16965398 3.25448097 3.36143262 6.5253585 4.625 10.1875 C4.85445313 10.84169922 5.08390625 11.49589844 5.3203125 12.16992188 C5.88395144 13.77864135 6.44247984 15.38914977 7 17 C6.34 17.33 5.68 17.66 5 18 C-0.74031891 6.66287016 -0.74031891 6.66287016 0 0 Z " fill="#499F6C" transform="translate(80,264)"/>
<path d="M0 0 C2.97 0.495 2.97 0.495 6 1 C6.33 1.99 6.66 2.98 7 4 C10.00847418 5.22520264 10.00847418 5.22520264 13 6 C13 6.66 13 7.32 13 8 C7.64147506 7.60791281 3.85831875 5.6642613 0 2 C0 1.34 0 0.68 0 0 Z " fill="#5BAE6B" transform="translate(96,89)"/>
<path d="M0 0 C5.78886224 1.36827653 11.38145918 3.04911777 17 5 C17 5.33 17 5.66 17 6 C11.07521088 5.66043699 6.12778478 5.28704152 1 2 C0.67 1.34 0.34 0.68 0 0 Z " fill="#419370" transform="translate(151,356)"/>
<path d="M0 0 C4.75809749 0.59476219 8.94710294 2.4906128 13 5 C13.33 5.66 13.66 6.32 14 7 C10.33827525 6.37321829 7.1181005 5.35548154 3.6875 3.9375 C2.36298828 3.39416016 2.36298828 3.39416016 1.01171875 2.83984375 C0.34785156 2.56269531 -0.31601563 2.28554688 -1 2 C-0.67 1.34 -0.34 0.68 0 0 Z " fill="#439F77" transform="translate(124,329)"/>
<path d="M0 0 C0.99 0 1.98 0 3 0 C2.85969405 3.01657791 2.70648535 5.23841273 0.59765625 7.51171875 C-0.88904235 8.73256066 -2.44134898 9.87246522 -4 11 C-3.49516338 6.65840504 -2.68099266 3.50591348 0 0 Z " fill="#409B75" transform="translate(282,251)"/>
<path d="M0 0 C0.33 1.32 0.66 2.64 1 4 C-3.37458194 7.03790412 -3.37458194 7.03790412 -6.0625 6.875 C-8.30701556 5.86134781 -10.05299473 4.49769636 -12 3 C-11.21753906 2.95101562 -10.43507813 2.90203125 -9.62890625 2.8515625 C-8.61699219 2.77679688 -7.60507812 2.70203125 -6.5625 2.625 C-5.55316406 2.55539063 -4.54382813 2.48578125 -3.50390625 2.4140625 C-2.26447266 2.20910156 -2.26447266 2.20910156 -1 2 C-0.67 1.34 -0.34 0.68 0 0 Z " fill="#449E77" transform="translate(279,214)"/>
<path d="M0 0 C1.25985286 3.77955857 0.64024579 6.84423452 0.0625 10.6875 C-0.03740234 11.38939453 -0.13730469 12.09128906 -0.24023438 12.81445312 C-0.48729325 14.54386527 -0.74282852 16.2720627 -1 18 C-1.33 18 -1.66 18 -2 18 C-3.40487748 5.85321313 -3.40487748 5.85321313 -2 1 C-1.34 0.67 -0.68 0.34 0 0 Z " fill="#64B071" transform="translate(20,108)"/>
<path d="M0 0 C2.76276177 0.52268466 5.3260876 1.10869587 8 2 C8 2.66 8 3.32 8 4 C10.475 4.99 10.475 4.99 13 6 C13 6.66 13 7.32 13 8 C8.1725201 6.58707905 4.2837641 4.57025846 0 2 C0 1.34 0 0.68 0 0 Z " fill="#5EAB65" transform="translate(82,81)"/>
<path d="M0 0 C0.66 0 1.32 0 2 0 C1.34 1.98 0.68 3.96 0 6 C-2.64 6 -5.28 6 -8 6 C-8 5.34 -8 4.68 -8 4 C-8.66 3.67 -9.32 3.34 -10 3 C-7.36 3.33 -4.72 3.66 -2 4 C-1.34 2.68 -0.68 1.36 0 0 Z " fill="#429774" transform="translate(196,364)"/>
<path d="M0 0 C-1.48781815 3.78717347 -3.61988409 5.77407001 -7 8 C-7.99 7.67 -8.98 7.34 -10 7 C-4.34042553 0 -4.34042553 0 0 0 Z " fill="#3F9974" transform="translate(230,335)"/>
<path d="M0 0 C4.571279 0.54855348 8.67435795 1.41744803 13 3 C13 3.66 13 4.32 13 5 C13.66 5.33 14.32 5.66 15 6 C9.55432314 4.97137215 4.88182883 3.75385216 0 1 C0 0.67 0 0.34 0 0 Z " fill="#429D74" transform="translate(139,336)"/>
<path d="M0 0 C1.66666667 1.66666667 3.33333333 3.33333333 5 5 C5.928125 5.886875 6.85625 6.77375 7.8125 7.6875 C10 10 10 10 10 12 C6.88175879 10.63746417 4.95262649 9.14891747 2.75 6.5625 C2.22921875 5.96566406 1.7084375 5.36882812 1.171875 4.75390625 C0 3 0 3 0 0 Z " fill="#469A6C" transform="translate(90,287)"/>
<path d="M0 0 C0.99 0.33 1.98 0.66 3 1 C0.03 3.97 -2.94 6.94 -6 10 C-6.66 8.68 -7.32 7.36 -8 6 C-7.05125 5.38125 -6.1025 4.7625 -5.125 4.125 C-2.05554891 2.18029031 -2.05554891 2.18029031 0 0 Z " fill="#5BAC68" transform="translate(189,65)"/>
<path d="M0 0 C-0.33 0.99 -0.66 1.98 -1 3 C-3.06640625 3.94921875 -3.06640625 3.94921875 -5.5625 4.6875 C-6.38878906 4.93886719 -7.21507812 5.19023438 -8.06640625 5.44921875 C-8.70449219 5.63097656 -9.34257812 5.81273437 -10 6 C-10 6.66 -10 7.32 -10 8 C-12 7 -12 7 -13 5 C-11.39967863 4.15930585 -9.79458829 3.32768495 -8.1875 2.5 C-6.84751953 1.80390625 -6.84751953 1.80390625 -5.48046875 1.09375 C-3 0 -3 0 0 0 Z " fill="#5FAA69" transform="translate(262,0)"/>
<path d="M0 0 C0.66 0.99 1.32 1.98 2 3 C1.34 4.32 0.68 5.64 0 7 C-0.66 7 -1.32 7 -2 7 C-2.66 8.32 -3.32 9.64 -4 11 C-4.17754126 7.09409237 -4.20731737 4.31097606 -2 1 C-1.34 0.67 -0.68 0.34 0 0 Z " fill="#419B75" transform="translate(292,234)"/>
<path d="M0 0 C5.08335725 0.15404113 7.35754718 3.02068432 10.64453125 6.50390625 C11.09183594 6.99761719 11.53914062 7.49132812 12 8 C11.01 8.33 10.02 8.66 9 9 C7.49704815 7.69088122 5.99770689 6.37761608 4.5 5.0625 C3.6646875 4.33160156 2.829375 3.60070312 1.96875 2.84765625 C1.3190625 2.23792969 0.669375 1.62820312 0 1 C0 0.67 0 0.34 0 0 Z " fill="#5DAC6A" transform="translate(117,104)"/>
<path d="M0 0 C3.66060821 0.58536753 5.54535164 2.083239 8.25 4.5625 C8.95640625 5.20316406 9.6628125 5.84382813 10.390625 6.50390625 C10.92171875 6.99761719 11.4528125 7.49132812 12 8 C11.67 8.99 11.34 9.98 11 11 C9.16365304 9.35742342 7.3308593 7.71117305 5.5 6.0625 C4.97535156 5.59392578 4.45070313 5.12535156 3.91015625 4.64257812 C2.5878256 3.44904592 1.29166061 2.22665821 0 1 C0 0.67 0 0.34 0 0 Z " fill="#479E71" transform="translate(69,292)"/>
<path d="M0 0 C3.65392651 1.2179755 3.95831699 2.14396506 5.75 5.4375 C6.19859375 6.24058594 6.6471875 7.04367188 7.109375 7.87109375 C7.40328125 8.57363281 7.6971875 9.27617187 8 10 C7.67 10.66 7.34 11.32 7 12 C4.04485124 9.24865461 1.8475191 6.60266225 0 3 C0 2.01 0 1.02 0 0 Z " fill="#55A571" transform="translate(37,248)"/>
<path d="M0 0 C3 2 3 2 3.546875 3.953125 C3.94964724 8.50754954 4.04022453 12.49236036 3 17 C2.67 17 2.34 17 2 17 C1.34 11.39 0.68 5.78 0 0 Z " fill="#5DB07A" transform="translate(74,237)"/>
<path d="M0 0 C0.33 0.66 0.66 1.32 1 2 C1.99 2.33 2.98 2.66 4 3 C4.76173392 7.3164922 5.16063604 10.74433453 4 15 C3.67 15 3.34 15 3 15 C2.49564306 13.0636296 1.99666126 11.12585854 1.5 9.1875 C1.2215625 8.10855469 0.943125 7.02960938 0.65625 5.91796875 C0 3 0 3 0 0 Z " fill="#61B076" transform="translate(114,155)"/>
<path d="M0 0 C0.99 0.33 1.98 0.66 3 1 C4.01953125 3.14453125 4.01953125 3.14453125 4.8125 5.8125 C5.22435547 7.12154297 5.22435547 7.12154297 5.64453125 8.45703125 C6.0542179 11.38786651 5.57169068 12.54816255 4 15 C3.32779649 13.06441401 2.66241923 11.12645628 2 9.1875 C1.62875 8.10855469 1.2575 7.02960938 0.875 5.91796875 C0 3 0 3 0 0 Z " fill="#5AAC77" transform="translate(290,78)"/>
<path d="M0 0 C4.84659077 0.59104765 8.60748167 1.97944157 13 4 C13 4.33 13 4.66 13 5 C7.76824163 5.38281159 4.62197306 4.21854707 0 2 C0 1.34 0 0.68 0 0 Z " fill="#419771" transform="translate(129,348)"/>
<path d="M0 0 C4.13639336 1.59092052 7.23213248 4.60474918 10 8 C10 8.66 10 9.32 10 10 C5.86360664 8.40907948 2.76786752 5.39525082 0 2 C0 1.34 0 0.68 0 0 Z " fill="#49A06F" transform="translate(145,219)"/>
<path d="M0 0 C0.33 0 0.66 0 1 0 C1.33 1.98 1.66 3.96 2 6 C2.33 6 2.66 6 3 6 C3.76173392 10.3164922 4.16063604 13.74433453 3 18 C2.67 18 2.34 18 2 18 C0.59545452 11.88019467 -0.23268915 6.28260706 0 0 Z " fill="#5EAD7B" transform="translate(2,185)"/>
<path d="M0 0 C1.90845703 0.15275391 1.90845703 0.15275391 3.85546875 0.30859375 C4.83128906 0.39238281 5.80710937 0.47617188 6.8125 0.5625 C5.4375 2.0625 5.4375 2.0625 3.8125 3.5625 C3.1525 3.5625 2.4925 3.5625 1.8125 3.5625 C1.8125 2.9025 1.8125 2.2425 1.8125 1.5625 C-2.4775 2.2225 -6.7675 2.8825 -11.1875 3.5625 C-10.8575 2.5725 -10.5275 1.5825 -10.1875 0.5625 C-6.51762779 -0.66079074 -3.84782178 -0.31771006 0 0 Z " fill="#5EBD80" transform="translate(77.1875,125.4375)"/>
<path d="M0 0 C-0.52537724 5.0302076 -1.10594786 10.01885239 -2 15 C-2.33 15 -2.66 15 -3 15 C-4.404124 5.08472437 -4.404124 5.08472437 -3 1 C-1 0 -1 0 0 0 Z " fill="#65B26F" transform="translate(24,91)"/>
<path d="M0 0 C1.32 0.66 2.64 1.32 4 2 C2.88121617 3.17262904 1.75476949 4.33795138 0.625 5.5 C-0.00148437 6.1496875 -0.62796875 6.799375 -1.2734375 7.46875 C-3 9 -3 9 -5 9 C-3.50163895 5.88801935 -1.80066242 2.9465385 0 0 Z " fill="#5CAE6B" transform="translate(175,77)"/>
<path d="M0 0 C0.66 0 1.32 0 2 0 C0.60064115 3.40364888 -0.87004732 4.90806188 -4 6.8125 C-5.051875 7.47185547 -5.051875 7.47185547 -6.125 8.14453125 C-6.74375 8.42683594 -7.3625 8.70914063 -8 9 C-8.66 8.67 -9.32 8.34 -10 8 C-8.60020312 5.20040624 -6.36842507 4.43072405 -3.69140625 3 C-1.8257777 1.99165437 -1.8257777 1.99165437 0 0 Z " fill="#5AA965" transform="translate(219,41)"/>
<path d="M0 0 C1.32 0.33 2.64 0.66 4 1 C0.7 3.31 -2.6 5.62 -6 8 C-6.66 7.67 -7.32 7.34 -8 7 C-5.42215154 4.35247996 -3.08351902 2.05567935 0 0 Z " fill="#5AA760" transform="translate(218,24)"/>
<path d="M0 0 C-1.21918383 3.6575515 -2.84071298 4.42328869 -6.14453125 6.21484375 C-8.51473693 7.217815 -10.45898646 7.30800164 -13 7 C-4.25 0 -4.25 0 0 0 Z " fill="#439972" transform="translate(164,304)"/>
<path d="M0 0 C3.29078593 2.79716804 5.06305458 6.19528578 7 10 C6.67 10.66 6.34 11.32 6 12 C3.37591634 9.62582907 1.61386598 7.15088121 0 4 C0 2.68 0 1.36 0 0 Z " fill="#4C9C64" transform="translate(22,251)"/>
<path d="M0 0 C2.6597889 1.32989445 2.9835728 2.68898191 4.1875 5.375 C4.55230469 6.16648438 4.91710937 6.95796875 5.29296875 7.7734375 C6 10 6 10 5 13 C1.68441485 8.61487125 0.45003347 5.62541841 0 0 Z " fill="#46A06D" transform="translate(183,183)"/>
<path d="M0 0 C5.97031739 0.29123499 8.894534 3.02814384 13 7 C12.01 7.33 11.02 7.66 10 8 C8.02734375 6.85546875 8.02734375 6.85546875 5.9375 5.1875 C5.24527344 4.64480469 4.55304688 4.10210937 3.83984375 3.54296875 C2 2 2 2 0 0 Z " fill="#5CAB6E" transform="translate(91,129)"/>
<path d="M0 0 C3.63559661 3.43361902 6.36113346 6.7973607 9 11 C8.01 11 7.02 11 6 11 C4.39453125 9.35546875 4.39453125 9.35546875 2.8125 7.1875 C2.28269531 6.47980469 1.75289062 5.77210937 1.20703125 5.04296875 C0 3 0 3 0 0 Z " fill="#4FA570" transform="translate(227,121)"/>
<path d="M0 0 C0.9435441 2.53899138 1.16906025 3.60909275 0.07421875 6.140625 C-0.61220703 7.18476563 -0.61220703 7.18476563 -1.3125 8.25 C-1.76238281 8.95640625 -2.21226562 9.6628125 -2.67578125 10.390625 C-3.11277344 10.92171875 -3.54976562 11.4528125 -4 12 C-4.66 12 -5.32 12 -6 12 C-4.43358249 7.69235185 -2.31663844 3.93828536 0 0 Z " fill="#409C71" transform="translate(178,285)"/>
<path d="M0 0 C2.03833424 1.2739589 4.03852126 2.61061923 6 4 C6 4.66 6 5.32 6 6 C6.99 6.33 7.98 6.66 9 7 C8.01 7.66 7.02 8.32 6 9 C1.3125 5.484375 1.3125 5.484375 0 4 C0 2.68 0 1.36 0 0 Z " fill="#5AAF6F" transform="translate(135,98)"/>
<path d="M0 0 C1.32 0.66 2.64 1.32 4 2 C3.34 2 2.68 2 2 2 C1.7525 2.61875 1.505 3.2375 1.25 3.875 C-0.20628639 6.35068687 -1.37812506 6.95125002 -4 8 C-2.25 2.25 -2.25 2.25 0 0 Z " fill="#5EAF79" transform="translate(252,42)"/>
<path d="M0 0 C3.00825564 1.50412782 3.30662971 3.86048301 4.40234375 6.921875 C5.10104707 9.35135321 5.23571669 11.48568864 5 14 C1.34133706 9.67612562 0 5.65076098 0 0 Z " fill="#4FA268" transform="translate(71,226)"/>
<path d="M0 0 C1 4 1 4 0.00390625 6.359375 C-0.47175781 7.14828125 -0.94742187 7.9371875 -1.4375 8.75 C-1.91058594 9.54921875 -2.38367188 10.3484375 -2.87109375 11.171875 C-3.24363281 11.77515625 -3.61617188 12.3784375 -4 13 C-4.66 12.67 -5.32 12.34 -6 12 C-4.02 8.04 -2.04 4.08 0 0 Z " fill="#4FA56C" transform="translate(264,109)"/>
<path d="M0 0 C0.99 0.33 1.98 0.66 3 1 C1.625 2.5 1.625 2.5 0 4 C-0.66 4 -1.32 4 -2 4 C-2 4.66 -2 5.32 -2 6 C-2.66 6 -3.32 6 -4 6 C-4.33 6.99 -4.66 7.98 -5 9 C-5.66 8.67 -6.32 8.34 -7 8 C-3.375 2.25 -3.375 2.25 0 0 Z " fill="#40966C" transform="translate(242,302)"/>
<path d="M0 0 C3 1 3 1 4.6875 3.75 C5.93950669 6.85020705 6.28970125 8.71671912 6 12 C3.25207517 8.59780735 0 4.51535412 0 0 Z " fill="#429D73" transform="translate(174,232)"/>
<path d="M0 0 C1.79275866 3.11910856 2.34290718 5.67682428 2.625 9.25 C2.69976562 10.14203125 2.77453125 11.0340625 2.8515625 11.953125 C2.92503906 12.96632812 2.92503906 12.96632812 3 14 C2.67 12.68 2.34 11.36 2 10 C1.34 10 0.68 10 0 10 C-1.125 2.25 -1.125 2.25 0 0 Z " fill="#61AF77" transform="translate(131,159)"/>
<path d="M0 0 C3.63515926 1.00976646 4.95669389 1.94643718 7.375 4.9375 C7.91125 5.948125 8.4475 6.95875 9 8 C8.67 8.99 8.34 9.98 8 11 C6.85204994 9.5433323 5.70670581 8.08461063 4.5625 6.625 C3.60537109 5.40683594 3.60537109 5.40683594 2.62890625 4.1640625 C1 2 1 2 0 0 Z " fill="#53AD76" transform="translate(154,141)"/>
<path d="M0 0 C4.24822374 0.47202486 6.19989709 2.96655518 9 6 C8.67 6.99 8.34 7.98 8 9 C6.66368764 7.6905332 5.33102075 6.37734515 4 5.0625 C3.2575 4.33160156 2.515 3.60070312 1.75 2.84765625 C0 1 0 1 0 0 Z " fill="#5DAD6E" transform="translate(129,114)"/>
<path d="M0 0 C-1.44253657 3.36591866 -3.33264727 5.51047079 -6 8 C-6.99 7.67 -7.98 7.34 -9 7 C-7.88121617 5.82737096 -6.75476949 4.66204862 -5.625 3.5 C-4.68527344 2.52546875 -4.68527344 2.52546875 -3.7265625 1.53125 C-2 0 -2 0 0 0 Z " fill="#429872" transform="translate(207,355)"/>
<path d="M0 0 C3.09592835 3.5087188 4.74194623 6.49197399 6 11 C3 10 3 10 1.796875 8.22265625 C1.45140625 7.50980469 1.1059375 6.79695312 0.75 6.0625 C0.39421875 5.35222656 0.0384375 4.64195312 -0.328125 3.91015625 C-0.54984375 3.27980469 -0.7715625 2.64945313 -1 2 C-0.67 1.34 -0.34 0.68 0 0 Z " fill="#5BAD78" transform="translate(80,212)"/>
<path d="M0 0 C2.1755306 2.1755306 2.71879553 3.55973892 3.6875 6.4375 C3.95949219 7.21996094 4.23148438 8.00242188 4.51171875 8.80859375 C5 11 5 11 4 14 C1.24297811 9.20517932 0.46671627 5.41390868 0 0 Z " fill="#3D9969" transform="translate(191,201)"/>
<path d="M0 0 C0.66 0 1.32 0 2 0 C3.5078125 1.53125 3.5078125 1.53125 5.125 3.5 C5.66382813 4.1496875 6.20265625 4.799375 6.7578125 5.46875 C7.16773438 5.9740625 7.57765625 6.479375 8 7 C7.67 7.66 7.34 8.32 7 9 C5.82460004 8.07347299 4.65989423 7.13336613 3.5 6.1875 C2.52546875 5.40439453 2.52546875 5.40439453 1.53125 4.60546875 C0 3 0 3 0 0 Z " fill="#4A9F72" transform="translate(253,200)"/>
<path d="M0 0 C0.33 0 0.66 0 1 0 C1.08167446 1.41569064 1.13949698 2.83276805 1.1875 4.25 C1.22230469 5.03890625 1.25710938 5.8278125 1.29296875 6.640625 C0.93578688 9.51712968 -0.11751718 10.84576769 -2 13 C-1.85966889 11.02043559 -1.7125877 9.04134859 -1.5625 7.0625 C-1.48128906 5.96035156 -1.40007812 4.85820312 -1.31640625 3.72265625 C-1 1 -1 1 0 0 Z " fill="#3D9465" transform="translate(317,199)"/>
<path d="M0 0 C0.66 0 1.32 0 2 0 C5.07692308 5.41538462 5.07692308 5.41538462 4.6875 8.375 C4.460625 8.91125 4.23375 9.4475 4 10 C0 4.5 0 4.5 0 0 Z " fill="#47A26E" transform="translate(195,175)"/>
<path d="M0 0 C3.40667322 0.44824648 5.07914607 1.05276405 8 3 C7.34 3.66 6.68 4.32 6 5 C2.70720291 4.68134222 1.13464912 3.45484649 -1 1 C-0.67 0.67 -0.34 0.34 0 0 Z " fill="#65AE6C" transform="translate(54,52)"/>
<path d="M0 0 C0.75 1.6875 0.75 1.6875 1 4 C-1.13381449 7.2769294 -2.25018012 8.75006004 -6 10 C-4.34832443 6.4213696 -2.21713508 3.25179812 0 0 Z " fill="#44956E" transform="translate(289,270)"/>
<path d="M0 0 C0.33 0 0.66 0 1 0 C1.77916092 5.02125926 2.13016601 8.97703996 1 14 C0.67 14 0.34 14 0 14 C-0.19532961 12.2300132 -0.38098882 10.45895721 -0.5625 8.6875 C-0.66691406 7.70136719 -0.77132812 6.71523437 -0.87890625 5.69921875 C-1 3 -1 3 0 0 Z " fill="#5BAF72" transform="translate(119,167)"/>
<path d="M0 0 C0.22036864 3.85645121 -0.39644899 6.49223216 -2 10 C-4 7 -4 7 -3.75 3.875 C-3.37875 2.451875 -3.37875 2.451875 -3 1 C-1 0 -1 0 0 0 Z " fill="#57A867" transform="translate(42,136)"/>
<path d="M0 0 C1.32 0.33 2.64 0.66 4 1 C3.6875 3.875 3.6875 3.875 3 7 C2.01 7.66 1.02 8.32 0 9 C0 6.03 0 3.06 0 0 Z " fill="#54A568" transform="translate(254,44)"/>
<path d="M0 0 C1.32 0 2.64 0 4 0 C3.25 1.9375 3.25 1.9375 2 4 C-0.125 4.75 -0.125 4.75 -2 5 C-1.125 1.125 -1.125 1.125 0 0 Z " fill="#3EA07F" transform="translate(210,349)"/>
<path d="M0 0 C2.31966166 2.84685749 3.91581154 5.4763875 5 9 C4.67 9.99 4.34 10.98 4 12 C3.67 10.68 3.34 9.36 3 8 C2.34 8 1.68 8 1 8 C0.67 5.36 0.34 2.72 0 0 Z " fill="#4A9B61" transform="translate(13,229)"/>
<path d="M0 0 C5.57142857 5.14285714 5.57142857 5.14285714 6 9 C5.34 9 4.68 9 4 9 C0 3.70588235 0 3.70588235 0 0 Z " fill="#469F70" transform="translate(156,229)"/>
<path d="M0 0 C3.34726719 1.11575573 3.62079748 1.51344622 5.25 4.4375 C5.8275 5.613125 6.405 6.78875 7 8 C6.67 8.66 6.34 9.32 6 10 C4.99421411 8.71283353 3.99553202 7.42011342 3 6.125 C2.443125 5.40570313 1.88625 4.68640625 1.3125 3.9453125 C0 2 0 2 0 0 Z " fill="#4CA36C" transform="translate(238,125)"/>
<path d="M0 0 C0.99 0.33 1.98 0.66 3 1 C2.125 6.75 2.125 6.75 1 9 C0.01 8.67 -0.98 8.34 -2 8 C-1.67 7.05125 -1.34 6.1025 -1 5.125 C0.10159191 2.22937548 0.10159191 2.22937548 0 0 Z " fill="#51A76D" transform="translate(277,93)"/>
<path d="M0 0 C3.81287042 1.44626119 5.32707177 3.30194812 7 7 C6.6875 9.3125 6.6875 9.3125 6 11 C3.7903399 7.42245507 1.84509889 3.77805964 0 0 Z " fill="#63AE70" transform="translate(264,0)"/>
<path d="M0 0 C3.81684226 1.55500981 6.19195732 4.03595495 9 7 C6.75 6.875 6.75 6.875 4 6 C1.6875 2.9375 1.6875 2.9375 0 0 Z " fill="#44976C" transform="translate(70,312)"/>
<path d="M0 0 C3.81684226 1.55500981 6.19195732 4.03595495 9 7 C6.625 6.75 6.625 6.75 4 6 C2.6875 3.9375 2.6875 3.9375 2 2 C1.34 2 0.68 2 0 2 C0 1.34 0 0.68 0 0 Z " fill="#57A86F" transform="translate(63,196)"/>
<path d="M0 0 C3.12270126 2.51830747 3.94523098 3.7261549 4.75 7.75 C4.8325 8.8225 4.915 9.895 5 11 C2.03947516 7.63576723 1.07710178 4.30840713 0 0 Z " fill="#429B6B" transform="translate(201,188)"/>
<path d="M0 0 C0.33 0 0.66 0 1 0 C1.24900646 1.93505023 1.47356242 3.87325934 1.6875 5.8125 C1.87892578 7.43091797 1.87892578 7.43091797 2.07421875 9.08203125 C2 12 2 12 -1 15 C-0.67 10.05 -0.34 5.1 0 0 Z " fill="#519F76" transform="translate(305,169)"/>
<path d="M0 0 C1.13643966 3.40931897 0.86747764 4.00335456 -0.4375 7.1875 C-0.86869141 8.26064453 -0.86869141 8.26064453 -1.30859375 9.35546875 C-1.53675781 9.89816406 -1.76492187 10.44085938 -2 11 C-2.33 11 -2.66 11 -3 11 C-2.8864371 9.35333797 -2.75882619 7.70763918 -2.625 6.0625 C-2.55539063 5.14597656 -2.48578125 4.22945312 -2.4140625 3.28515625 C-2.27742188 2.53105469 -2.14078125 1.77695313 -2 1 C-1.34 0.67 -0.68 0.34 0 0 Z " fill="#5CB16A" transform="translate(55,137)"/>
<path d="M0 0 C1.485 0.99 1.485 0.99 3 2 C2.67 5.96 2.34 9.92 2 14 C1.67 14 1.34 14 1 14 C0.67 9.38 0.34 4.76 0 0 Z " fill="#59AC88" transform="translate(302,123)"/>
<path d="M0 0 C2.56616632 3.84924948 2.55097676 6.4349304 3 11 C2.34 11 1.68 11 1 11 C-0.28317892 7.15046324 -0.06643637 4.05261865 0 0 Z " fill="#4B9D68" transform="translate(297,96)"/>
<path d="M0 0 C0.99 0 1.98 0 3 0 C3 0.66 3 1.32 3 2 C4.65 2.33 6.3 2.66 8 3 C8 3.66 8 4.32 8 5 C5.125 4.75 5.125 4.75 2 4 C0.625 1.9375 0.625 1.9375 0 0 Z " fill="#5BA861" transform="translate(49,65)"/>
<path d="M0 0 C2.64465038 3.1254959 3.84414715 6.08788267 5 10 C2 9 2 9 0.8125 6.6875 C0 4 0 4 0 0 Z " fill="#51A364" transform="translate(280,52)"/>
<path d="M0 0 C0.66 0 1.32 0 2 0 C1.43628586 3.26954202 0.50037734 4.82575883 -2 7 C-2.99 6.67 -3.98 6.34 -5 6 C-3.38405168 3.95880212 -1.7143618 1.95927063 0 0 Z " fill="#409771" transform="translate(236,327)"/>
<path d="M0 0 C0.88492145 2.47778006 1.11637742 3.66056586 0.25 6.1875 C-1 8 -1 8 -4 9 C-2.94124926 5.59687262 -1.99097846 2.98646769 0 0 Z " fill="#3E946A" transform="translate(301,249)"/>
<path d="M0 0 C1.65 0.99 3.3 1.98 5 3 C4.0022242 5.99332739 3.2477975 6.94766315 1 9 C1.020625 8.071875 1.04125 7.14375 1.0625 6.1875 C1.15769604 2.97713989 1.15769604 2.97713989 0 0 Z " fill="#54A881" transform="translate(259,208)"/>
<path d="M0 0 C2.5654594 2.5654594 2.54046087 4.47686668 3 8 C2.01 8.33 1.02 8.66 0 9 C-1.10844919 5.67465243 -0.84454356 3.37817425 0 0 Z " fill="#579F64" transform="translate(39,181)"/>
<path d="M0 0 C1.32 0.33 2.64 0.66 4 1 C1.36 2.65 -1.28 4.3 -4 6 C-3 2 -3 2 0 0 Z " fill="#4AB283" transform="translate(213,123)"/>
<path d="M0 0 C5.75 0.75 5.75 0.75 8 3 C5.21176345 4.0326802 4.1322726 4.04509293 1.25 3.0625 C0.5075 2.711875 -0.235 2.36125 -1 2 C-0.67 1.34 -0.34 0.68 0 0 Z " fill="#60AF6A" transform="translate(92,114)"/>
<path d="M0 0 C-1.32 0.33 -2.64 0.66 -4 1 C-4 1.66 -4 2.32 -4 3 C-5.65 3.33 -7.3 3.66 -9 4 C-8 1 -8 1 -6.1875 -0.25 C-3.66056586 -1.11637742 -2.47778006 -0.88492145 0 0 Z " fill="#5CAA67" transform="translate(67,114)"/>
<path d="M0 0 C0.99 0 1.98 0 3 0 C3.99 1.98 4.98 3.96 6 6 C4.35 5.67 2.7 5.34 1 5 C0.67 3.35 0.34 1.7 0 0 Z " fill="#5AB068" transform="translate(153,89)"/>
<path d="M0 0 C4.43090471 1.20842856 6.98112756 2.51668565 10 6 C9.01 6.33 8.02 6.66 7 7 C5.17578125 5.8203125 5.17578125 5.8203125 3.3125 4.125 C2.68988281 3.57070312 2.06726563 3.01640625 1.42578125 2.4453125 C0 1 0 1 0 0 Z " fill="#5BAC62" transform="translate(125,92)"/>
<path d="M0 0 C1.31223496 3.93670488 0.24296256 6.12488144 -1 10 C-2.57035335 7.50590939 -3.0274945 6.29556584 -2.75 3.3125 C-2.5025 2.549375 -2.255 1.78625 -2 1 C-1.34 0.67 -0.68 0.34 0 0 Z " fill="#67B26F" transform="translate(28,73)"/>
<path d="M0 0 C-0.3125 1.875 -0.3125 1.875 -1 4 C-1.99 4.66 -2.98 5.32 -4 6 C-4.99 5.67 -5.98 5.34 -7 5 C-2.25 0 -2.25 0 0 0 Z " fill="#59A765" transform="translate(164,72)"/>
<path d="M0 0 C0.33 0.99 0.66 1.98 1 3 C-2.3 2.34 -5.6 1.68 -9 1 C-4.82091936 -1.08954032 -4.19589427 -1.16552619 0 0 Z " fill="#45A585" transform="translate(187,366)"/>
<path d="M0 0 C2.5 2.3125 2.5 2.3125 5 5 C5 5.99 5 6.98 5 8 C2.5 6.25 2.5 6.25 0 4 C0 2.68 0 1.36 0 0 Z " fill="#46986B" transform="translate(42,282)"/>
<path d="M0 0 C0 0.99 0 1.98 0 3 C-0.66 3 -1.32 3 -2 3 C-2.33 3.99 -2.66 4.98 -3 6 C-3.99 6.33 -4.98 6.66 -6 7 C-4.52307692 2.32307692 -4.52307692 2.32307692 -1.875 0.6875 C-1.25625 0.460625 -0.6375 0.23375 0 0 Z " fill="#43AE8D" transform="translate(257,227)"/>
<path d="M0 0 C0.33 0 0.66 0 1 0 C1.125 6.625 1.125 6.625 0 10 C-0.66 10 -1.32 10 -2 10 C-1.54177532 6.53058454 -1.10868317 3.32604951 0 0 Z " fill="#3F976C" transform="translate(314,213)"/>
<path d="M0 0 C0.66 0 1.32 0 2 0 C5 4.38461538 5 4.38461538 5 7 C4.01 7 3.02 7 2 7 C0.5393715 4.35261084 0 3.10551666 0 0 Z " fill="#5CA56D" transform="translate(71,184)"/>
<path d="M0 0 C0.66 0 1.32 0 2 0 C3.06775224 1.96466413 4.06553465 3.96855359 5 6 C4.67 6.66 4.34 7.32 4 8 C1.10067643 5.60490662 0.49831724 3.68754757 0 0 Z " fill="#5CAE6E" transform="translate(124,143)"/>
<path d="M0 0 C2.0625 1.75 2.0625 1.75 4 4 C3.75 6.25 3.75 6.25 3 8 C2.01 8 1.02 8 0 8 C0.2784375 7.13375 0.2784375 7.13375 0.5625 6.25 C1.04023546 3.79307475 0.75729364 2.35602466 0 0 Z " fill="#4DA766" transform="translate(216,107)"/>
<path d="M0 0 C6.75 -0.125 6.75 -0.125 9 1 C8.67 2.32 8.34 3.64 8 5 C7.13375 4.319375 7.13375 4.319375 6.25 3.625 C4.2199667 2.15886484 2.26460157 1.05142216 0 0 Z " fill="#62B17A" transform="translate(207,104)"/>
<path d="M0 0 C5.75 0.875 5.75 0.875 8 2 C8 2.66 8 3.32 8 4 C4.31245243 3.50168276 2.39509338 2.89932357 0 0 Z " fill="#449E71" transform="translate(113,324)"/>
<path d="M0 0 C3.68754757 0.49831724 5.60490662 1.10067643 8 4 C7.01 4.495 7.01 4.495 6 5 C3.98079663 3.69593116 1.98075027 2.36176581 0 1 C0 0.67 0 0.34 0 0 Z " fill="#429D73" transform="translate(103,318)"/>
<path d="M0 0 C3.465 1.98 3.465 1.98 7 4 C6.67 4.99 6.34 5.98 6 7 C3.95880212 5.38405168 1.95927063 3.7143618 0 2 C0 1.34 0 0.68 0 0 Z " fill="#46996A" transform="translate(104,284)"/>
<path d="M0 0 C1.0326802 2.78823655 1.04509293 3.8677274 0.0625 6.75 C-0.288125 7.4925 -0.63875 8.235 -1 9 C-1.66 9 -2.32 9 -3 9 C-2.44271087 5.65626525 -1.64826111 2.96687001 0 0 Z " fill="#4EA56F" transform="translate(250,139)"/>
<path d="M0 0 C0.99 0.99 1.98 1.98 3 3 C2.01 3.33 1.02 3.66 0 4 C-0.33 3.01 -0.66 2.02 -1 1 C-0.67 0.67 -0.34 0.34 0 0 Z " fill="#4AB4B4" transform="translate(85,285)"/>
<path d="M0 0 C0.99 0.495 0.99 0.495 2 1 C1.01 2.485 1.01 2.485 0 4 C0 2.68 0 1.36 0 0 Z " fill="#22DD2A" transform="translate(36,185)"/>
<path d="M0 0 C0.33 0.66 0.66 1.32 1 2 C0.34 1.67 -0.32 1.34 -1 1 C-0.67 0.67 -0.34 0.34 0 0 Z " fill="#2AD4D4" transform="translate(85,327)"/>
<path d="" fill="#2AD4D4" transform="translate(0,0)"/>
<path d="M0 0 C0.66 0.66 1.32 1.32 2 2 C1.34 2 0.68 2 0 2 C0 1.34 0 0.68 0 0 Z " fill="#2AD4D4" transform="translate(89,207)"/>
<path d="M0 0 C0.66 0 1.32 0 2 0 C1.67 0.66 1.34 1.32 1 2 C0.67 1.34 0.34 0.68 0 0 Z " fill="#7F7F7F" transform="translate(86,204)"/>
<path d="M0 0 C0.66 0 1.32 0 2 0 C1.67 0.66 1.34 1.32 1 2 C0.67 1.34 0.34 0.68 0 0 Z " fill="#2AD42A" transform="translate(39,191)"/>
<path d="M0 0 C0.66 0 1.32 0 2 0 C1.67 0.66 1.34 1.32 1 2 C0.67 1.34 0.34 0.68 0 0 Z " fill="#54BFA9" transform="translate(102,140)"/>
<path d="M0 0 C0.66 0.66 1.32 1.32 2 2 C1.34 2 0.68 2 0 2 C0 1.34 0 0.68 0 0 Z " fill="#7F7F7F" transform="translate(153,95)"/>
<path d="M0 0 C0.66 0.66 1.32 1.32 2 2 C1.34 2 0.68 2 0 2 C0 1.34 0 0.68 0 0 Z " fill="#54A9A9" transform="translate(287,78)"/>
<path d="M0 0 C0.33 0.66 0.66 1.32 1 2 C0.34 1.67 -0.32 1.34 -1 1 C-0.67 0.67 -0.34 0.34 0 0 Z " fill="#1CE2E2" transform="translate(287,75)"/>
<path d="" fill="#38C638" transform="translate(0,0)"/>
<path d="M0 0 C2 1 2 1 2 1 Z " fill="#5F7F7F" transform="translate(175,367)"/>
<path d="M0 0 C2 1 2 1 2 1 Z " fill="#2AD4D4" transform="translate(172,366)"/>
<path d="" fill="#00FFFF" transform="translate(0,0)"/>
<path d="" fill="#00FFFF" transform="translate(0,0)"/>
<path d="M0 0 C2 1 2 1 2 1 Z " fill="#00FFFF" transform="translate(260,312)"/>
<path d="" fill="#7F7F7F" transform="translate(0,0)"/>
<path d="M0 0 C2 1 2 1 2 1 Z " fill="#00FF00" transform="translate(24,263)"/>
<path d="" fill="#00FFFF" transform="translate(0,0)"/>
<path d="" fill="#3FBF3F" transform="translate(0,0)"/>
<path d="" fill="#00FFFF" transform="translate(0,0)"/>
<path d="" fill="#00FFFF" transform="translate(0,0)"/>
<path d="M0 0 C2 1 2 1 2 1 Z " fill="#3FBFBF" transform="translate(241,241)"/>
<path d="" fill="#00FFFF" transform="translate(0,0)"/>
<path d="" fill="#00FFFF" transform="translate(0,0)"/>
<path d="" fill="#2AD42A" transform="translate(0,0)"/>
<path d="" fill="#1FDF3F" transform="translate(0,0)"/>
<path d="" fill="#3FBFBF" transform="translate(0,0)"/>
<path d="" fill="#00FFFF" transform="translate(0,0)"/>
<path d="" fill="#6A9494" transform="translate(0,0)"/>
<path d="" fill="#00FFFF" transform="translate(0,0)"/>
<path d="" fill="#00FFFF" transform="translate(0,0)"/>
<path d="" fill="#3FBFBF" transform="translate(0,0)"/>
<path d="" fill="#3FBFBF" transform="translate(0,0)"/>
<path d="" fill="#00FFFF" transform="translate(0,0)"/>
<path d="" fill="#2AD42A" transform="translate(0,0)"/>
<path d="" fill="#00FF00" transform="translate(0,0)"/>
<path d="" fill="#3FBFBF" transform="translate(0,0)"/>
<path d="" fill="#2AD4D4" transform="translate(0,0)"/>
<path d="" fill="#3FBFBF" transform="translate(0,0)"/>
<path d="" fill="#7F7F7F" transform="translate(0,0)"/>
<path d="" fill="#3FBFBF" transform="translate(0,0)"/>
<path d="M0 0 C2 1 2 1 2 1 Z " fill="#3FBFBF" transform="translate(197,93)"/>
<path d="" fill="#2AD42A" transform="translate(0,0)"/>
<path d="" fill="#00FF00" transform="translate(0,0)"/>
<path d="" fill="#3FBF3F" transform="translate(0,0)"/>
<path d="" fill="#00FF00" transform="translate(0,0)"/>
<path d="" fill="#000000" transform="translate(0,0)"/>
<path d="" fill="#55AAAA" transform="translate(0,0)"/>
<path d="" fill="#000000" transform="translate(0,0)"/>
<path d="" fill="#00FFFF" transform="translate(0,0)"/>
<path d="" fill="#7F7F7F" transform="translate(0,0)"/>
<path d="" fill="#000000" transform="translate(0,0)"/>
<path d="" fill="#00FFFF" transform="translate(0,0)"/>
<path d="" fill="#7F7F7F" transform="translate(0,0)"/>
<path d="" fill="#7F7F7F" transform="translate(0,0)"/>
<path d="" fill="#55AAAA" transform="translate(0,0)"/>
<path d="" fill="#000000" transform="translate(0,0)"/>
<path d="" fill="#00FFFF" transform="translate(0,0)"/>
<path d="" fill="#7F7F7F" transform="translate(0,0)"/>
<path d="" fill="#00FFFF" transform="translate(0,0)"/>
<path d="" fill="#000000" transform="translate(0,0)"/>
<path d="" fill="#00FFFF" transform="translate(0,0)"/>
<path d="" fill="#7F7F7F" transform="translate(0,0)"/>
<path d="" fill="#000000" transform="translate(0,0)"/>
<path d="" fill="#00FFFF" transform="translate(0,0)"/>
<path d="" fill="#000000" transform="translate(0,0)"/>
<path d="" fill="#000000" transform="translate(0,0)"/>
<path d="" fill="#00FF00" transform="translate(0,0)"/>
<path d="" fill="#00FFFF" transform="translate(0,0)"/>
<path d="" fill="#00FF00" transform="translate(0,0)"/>
<path d="" fill="#00FF00" transform="translate(0,0)"/>
<path d="" fill="#7F7F7F" transform="translate(0,0)"/>
<path d="" fill="#55AAAA" transform="translate(0,0)"/>
<path d="" fill="#00FFFF" transform="translate(0,0)"/>
<path d="" fill="#7F7F7F" transform="translate(0,0)"/>
<path d="" fill="#00FF00" transform="translate(0,0)"/>
<path d="" fill="#00FF00" transform="translate(0,0)"/>
<path d="" fill="#00FFFF" transform="translate(0,0)"/>
<path d="" fill="#7F7F7F" transform="translate(0,0)"/>
<path d="" fill="#00FFFF" transform="translate(0,0)"/>
<path d="" fill="#00FFFF" transform="translate(0,0)"/>
<path d="" fill="#7F7F7F" transform="translate(0,0)"/>
<path d="" fill="#00FFFF" transform="translate(0,0)"/>
<path d="" fill="#00FFFF" transform="translate(0,0)"/>
<path d="" fill="#00FFFF" transform="translate(0,0)"/>
<path d="" fill="#00FF00" transform="translate(0,0)"/>
<path d="" fill="#00FF00" transform="translate(0,0)"/>
<path d="" fill="#7F7F7F" transform="translate(0,0)"/>
<path d="" fill="#7F7F7F" transform="translate(0,0)"/>
<path d="" fill="#00FFFF" transform="translate(0,0)"/>
<path d="" fill="#55AA55" transform="translate(0,0)"/>
<path d="" fill="#00FF00" transform="translate(0,0)"/>
<path d="" fill="#00FFFF" transform="translate(0,0)"/>
<path d="" fill="#7F7F7F" transform="translate(0,0)"/>
<path d="" fill="#00FF00" transform="translate(0,0)"/>
<path d="" fill="#00FF00" transform="translate(0,0)"/>
<path d="" fill="#00FF00" transform="translate(0,0)"/>
<path d="" fill="#00FF00" transform="translate(0,0)"/>
<path d="" fill="#00FFFF" transform="translate(0,0)"/>
<path d="" fill="#00FF00" transform="translate(0,0)"/>
<path d="" fill="#55AAAA" transform="translate(0,0)"/>
<path d="" fill="#00FFFF" transform="translate(0,0)"/>
<path d="" fill="#00FFFF" transform="translate(0,0)"/>
<path d="" fill="#7F7F7F" transform="translate(0,0)"/>
<path d="" fill="#00FFFF" transform="translate(0,0)"/>
<path d="" fill="#00FFFF" transform="translate(0,0)"/>
<path d="" fill="#7F7F7F" transform="translate(0,0)"/>
<path d="" fill="#7F7F7F" transform="translate(0,0)"/>
<path d="" fill="#00FFFF" transform="translate(0,0)"/>
<path d="" fill="#7F7F7F" transform="translate(0,0)"/>
<path d="" fill="#00FFFF" transform="translate(0,0)"/>
<path d="" fill="#3F7F7F" transform="translate(0,0)"/>
<path d="" fill="#55AAAA" transform="translate(0,0)"/>
<path d="" fill="#7F7F7F" transform="translate(0,0)"/>
<path d="" fill="#00FF00" transform="translate(0,0)"/>
<path d="" fill="#55AAAA" transform="translate(0,0)"/>
<path d="" fill="#00FFFF" transform="translate(0,0)"/>
<path d="" fill="#00FF00" transform="translate(0,0)"/>
<path d="" fill="#7F7F7F" transform="translate(0,0)"/>
<path d="" fill="#00FFFF" transform="translate(0,0)"/>
<path d="" fill="#00FF00" transform="translate(0,0)"/>
<path d="" fill="#00FFFF" transform="translate(0,0)"/>
<path d="" fill="#7F7F7F" transform="translate(0,0)"/>
<path d="" fill="#00FF00" transform="translate(0,0)"/>
<path d="" fill="#00FFFF" transform="translate(0,0)"/>
<path d="" fill="#7F7F7F" transform="translate(0,0)"/>
<path d="" fill="#7F7F7F" transform="translate(0,0)"/>
<path d="" fill="#7F7F7F" transform="translate(0,0)"/>
<path d="" fill="#00FFFF" transform="translate(0,0)"/>
<path d="" fill="#00FFFF" transform="translate(0,0)"/>
<path d="" fill="#00FF00" transform="translate(0,0)"/>
<path d="" fill="#00FFFF" transform="translate(0,0)"/>
<path d="" fill="#00FF00" transform="translate(0,0)"/>
<path d="" fill="#7F7F7F" transform="translate(0,0)"/>
<path d="" fill="#00FFFF" transform="translate(0,0)"/>
<path d="" fill="#00FFFF" transform="translate(0,0)"/>
<path d="" fill="#00FFFF" transform="translate(0,0)"/>
<path d="" fill="#7F7F7F" transform="translate(0,0)"/>
<path d="" fill="#00FFFF" transform="translate(0,0)"/>
<path d="" fill="#00FFFF" transform="translate(0,0)"/>
<path d="" fill="#7F7F7F" transform="translate(0,0)"/>
<path d="" fill="#00FF00" transform="translate(0,0)"/>
<path d="" fill="#00FFFF" transform="translate(0,0)"/>
<path d="" fill="#00FF00" transform="translate(0,0)"/>
<path d="" fill="#00FFFF" transform="translate(0,0)"/>
<path d="" fill="#7F7F7F" transform="translate(0,0)"/>
<path d="" fill="#00FFFF" transform="translate(0,0)"/>
<path d="" fill="#00FFFF" transform="translate(0,0)"/>
<path d="" fill="#00FFFF" transform="translate(0,0)"/>
<path d="" fill="#00FFFF" transform="translate(0,0)"/>
<path d="" fill="#00FFFF" transform="translate(0,0)"/>
<path d="" fill="#00FFFF" transform="translate(0,0)"/>
<path d="" fill="#00FFFF" transform="translate(0,0)"/>
<path d="" fill="#55AAAA" transform="translate(0,0)"/>
<path d="" fill="#00FFFF" transform="translate(0,0)"/>
<path d="" fill="#7F7F7F" transform="translate(0,0)"/>
<path d="" fill="#7F7F7F" transform="translate(0,0)"/>
<path d="" fill="#00FFFF" transform="translate(0,0)"/>
<path d="" fill="#00FFFF" transform="translate(0,0)"/>
<path d="" fill="#00FFFF" transform="translate(0,0)"/>
<path d="" fill="#00FFFF" transform="translate(0,0)"/>
<path d="" fill="#00FFFF" transform="translate(0,0)"/>
<path d="" fill="#7F7F7F" transform="translate(0,0)"/>
<path d="" fill="#00FFFF" transform="translate(0,0)"/>
<path d="" fill="#00FFFF" transform="translate(0,0)"/>
<path d="" fill="#00FFFF" transform="translate(0,0)"/>
<path d="" fill="#00FF00" transform="translate(0,0)"/>
<path d="" fill="#7F7F7F" transform="translate(0,0)"/>
<path d="" fill="#00FF00" transform="translate(0,0)"/>
<path d="" fill="#7F7F7F" transform="translate(0,0)"/>
<path d="" fill="#00FFFF" transform="translate(0,0)"/>
<path d="" fill="#00FF00" transform="translate(0,0)"/>
<path d="" fill="#7F7F7F" transform="translate(0,0)"/>
<path d="" fill="#00FFFF" transform="translate(0,0)"/>
<path d="" fill="#55AAAA" transform="translate(0,0)"/>
<path d="" fill="#00FFFF" transform="translate(0,0)"/>
<path d="" fill="#00FF00" transform="translate(0,0)"/>
<path d="" fill="#00FFFF" transform="translate(0,0)"/>
<path d="" fill="#00FFFF" transform="translate(0,0)"/>
<path d="" fill="#00FFFF" transform="translate(0,0)"/>
<path d="" fill="#00FFFF" transform="translate(0,0)"/>
<path d="" fill="#00FFFF" transform="translate(0,0)"/>
<path d="" fill="#7FBF7F" transform="translate(0,0)"/>
<path d="" fill="#55AAAA" transform="translate(0,0)"/>
<path d="" fill="#7FBF7F" transform="translate(0,0)"/>
<path d="" fill="#7F7F7F" transform="translate(0,0)"/>
<path d="" fill="#00FFFF" transform="translate(0,0)"/>
<path d="" fill="#7F7F7F" transform="translate(0,0)"/>
<path d="" fill="#7F7F7F" transform="translate(0,0)"/>
<path d="" fill="#00FFFF" transform="translate(0,0)"/>
<path d="" fill="#00FFFF" transform="translate(0,0)"/>
<path d="" fill="#7F7F7F" transform="translate(0,0)"/>
<path d="" fill="#00FFFF" transform="translate(0,0)"/>
<path d="" fill="#7F7F7F" transform="translate(0,0)"/>
<path d="" fill="#00FFFF" transform="translate(0,0)"/>
<path d="" fill="#00FF00" transform="translate(0,0)"/>
<path d="" fill="#7F7F7F" transform="translate(0,0)"/>
<path d="" fill="#00FFFF" transform="translate(0,0)"/>
<path d="" fill="#00FFFF" transform="translate(0,0)"/>
<path d="" fill="#00FFFF" transform="translate(0,0)"/>
<path d="" fill="#00FFFF" transform="translate(0,0)"/>
<path d="" fill="#00FFFF" transform="translate(0,0)"/>
<path d="" fill="#00FFFF" transform="translate(0,0)"/>
<path d="" fill="#00FFFF" transform="translate(0,0)"/>
<path d="" fill="#00FFFF" transform="translate(0,0)"/>
<path d="" fill="#00FF00" transform="translate(0,0)"/>
<path d="" fill="#00FFFF" transform="translate(0,0)"/>
<path d="" fill="#00FFFF" transform="translate(0,0)"/>
<path d="" fill="#00FFFF" transform="translate(0,0)"/>
<path d="" fill="#00FFFF" transform="translate(0,0)"/>
<path d="" fill="#00FFFF" transform="translate(0,0)"/>
<path d="" fill="#00FFFF" transform="translate(0,0)"/>
<path d="" fill="#7F7F7F" transform="translate(0,0)"/>
<path d="" fill="#7F7F7F" transform="translate(0,0)"/>
<path d="" fill="#00FFFF" transform="translate(0,0)"/>
<path d="" fill="#00FFFF" transform="translate(0,0)"/>
<path d="" fill="#00FFFF" transform="translate(0,0)"/>
<path d="" fill="#00FFFF" transform="translate(0,0)"/>
<path d="" fill="#00FFFF" transform="translate(0,0)"/>
<path d="" fill="#00FFFF" transform="translate(0,0)"/>
<path d="" fill="#7F7F7F" transform="translate(0,0)"/>
<path d="" fill="#00FFFF" transform="translate(0,0)"/>
<path d="" fill="#00FFFF" transform="translate(0,0)"/>
<path d="" fill="#00FF00" transform="translate(0,0)"/>
<path d="" fill="#00FFFF" transform="translate(0,0)"/>
<path d="" fill="#00FFFF" transform="translate(0,0)"/>
<path d="" fill="#55AAAA" transform="translate(0,0)"/>
<path d="" fill="#7F7F7F" transform="translate(0,0)"/>
<path d="" fill="#00FFFF" transform="translate(0,0)"/>
<path d="" fill="#00FFFF" transform="translate(0,0)"/>
<path d="" fill="#00FFFF" transform="translate(0,0)"/>
<path d="" fill="#7F7F7F" transform="translate(0,0)"/>
<path d="" fill="#00FFFF" transform="translate(0,0)"/>
<path d="" fill="#55AA55" transform="translate(0,0)"/>
<path d="" fill="#00FFFF" transform="translate(0,0)"/>
<path d="" fill="#7F7F7F" transform="translate(0,0)"/>
<path d="" fill="#00FFFF" transform="translate(0,0)"/>
<path d="" fill="#7F7F7F" transform="translate(0,0)"/>
<path d="" fill="#00FFFF" transform="translate(0,0)"/>
<path d="" fill="#7F7F7F" transform="translate(0,0)"/>
<path d="" fill="#00FFFF" transform="translate(0,0)"/>
<path d="" fill="#00FFFF" transform="translate(0,0)"/>
<path d="" fill="#00FFFF" transform="translate(0,0)"/>
<path d="" fill="#7F7F7F" transform="translate(0,0)"/>
<path d="" fill="#00FFFF" transform="translate(0,0)"/>
<path d="" fill="#00FFFF" transform="translate(0,0)"/>
<path d="" fill="#7F7F7F" transform="translate(0,0)"/>
<path d="" fill="#55AAAA" transform="translate(0,0)"/>
<path d="" fill="#00FFFF" transform="translate(0,0)"/>
<path d="" fill="#7F7F7F" transform="translate(0,0)"/>
<path d="" fill="#00FFFF" transform="translate(0,0)"/>
<path d="" fill="#00FFFF" transform="translate(0,0)"/>
<path d="" fill="#00FFFF" transform="translate(0,0)"/>
<path d="" fill="#55AAAA" transform="translate(0,0)"/>
<path d="" fill="#7F7F7F" transform="translate(0,0)"/>
<path d="" fill="#00FF00" transform="translate(0,0)"/>
<path d="" fill="#00FFFF" transform="translate(0,0)"/>
<path d="" fill="#00FFFF" transform="translate(0,0)"/>
<path d="" fill="#00FFFF" transform="translate(0,0)"/>
<path d="" fill="#7F7F7F" transform="translate(0,0)"/>
<path d="" fill="#7F7F7F" transform="translate(0,0)"/>
<path d="" fill="#00FFFF" transform="translate(0,0)"/>
<path d="" fill="#00FF00" transform="translate(0,0)"/>
<path d="" fill="#00FFFF" transform="translate(0,0)"/>
<path d="" fill="#3FBF7F" transform="translate(0,0)"/>
<path d="" fill="#00FFFF" transform="translate(0,0)"/>
<path d="" fill="#00FFFF" transform="translate(0,0)"/>
<path d="" fill="#00FF00" transform="translate(0,0)"/>
<path d="" fill="#00FFFF" transform="translate(0,0)"/>
<path d="" fill="#00FFFF" transform="translate(0,0)"/>
<path d="" fill="#00FFFF" transform="translate(0,0)"/>
<path d="" fill="#00FFFF" transform="translate(0,0)"/>
<path d="" fill="#00FFFF" transform="translate(0,0)"/>
<path d="" fill="#00FF00" transform="translate(0,0)"/>
<path d="" fill="#00FF00" transform="translate(0,0)"/>
<path d="" fill="#00FF00" transform="translate(0,0)"/>
<path d="" fill="#00FF00" transform="translate(0,0)"/>
<path d="" fill="#00FFFF" transform="translate(0,0)"/>
<path d="" fill="#7F7F7F" transform="translate(0,0)"/>
<path d="" fill="#00FF00" transform="translate(0,0)"/>
<path d="" fill="#00FF00" transform="translate(0,0)"/>
<path d="" fill="#00FFFF" transform="translate(0,0)"/>
<path d="" fill="#7F7F7F" transform="translate(0,0)"/>
<path d="" fill="#00FFFF" transform="translate(0,0)"/>
<path d="" fill="#7F7F7F" transform="translate(0,0)"/>
<path d="" fill="#00FFFF" transform="translate(0,0)"/>
<path d="" fill="#7F7F7F" transform="translate(0,0)"/>
<path d="" fill="#7F7F7F" transform="translate(0,0)"/>
<path d="" fill="#00FFFF" transform="translate(0,0)"/>
<path d="" fill="#00FFFF" transform="translate(0,0)"/>
<path d="" fill="#00FF00" transform="translate(0,0)"/>
<path d="" fill="#00FFFF" transform="translate(0,0)"/>
<path d="" fill="#00FF00" transform="translate(0,0)"/>
<path d="" fill="#7F7F7F" transform="translate(0,0)"/>
<path d="" fill="#00FFFF" transform="translate(0,0)"/>
<path d="" fill="#55AAAA" transform="translate(0,0)"/>
<path d="" fill="#00FFFF" transform="translate(0,0)"/>
<path d="" fill="#7F7F7F" transform="translate(0,0)"/>
<path d="" fill="#7F7F7F" transform="translate(0,0)"/>
<path d="" fill="#7FBF7F" transform="translate(0,0)"/>
<path d="" fill="#00FFFF" transform="translate(0,0)"/>
<path d="" fill="#00FF00" transform="translate(0,0)"/>
<path d="" fill="#00FF00" transform="translate(0,0)"/>
<path d="" fill="#00FF00" transform="translate(0,0)"/>
<path d="" fill="#00FF00" transform="translate(0,0)"/>
<path d="" fill="#7F7F7F" transform="translate(0,0)"/>
<path d="" fill="#00FFFF" transform="translate(0,0)"/>
<path d="" fill="#669966" transform="translate(0,0)"/>
<path d="" fill="#55AA55" transform="translate(0,0)"/>
<path d="" fill="#00FF00" transform="translate(0,0)"/>
<path d="" fill="#7F7F7F" transform="translate(0,0)"/>
<path d="" fill="#00FFFF" transform="translate(0,0)"/>
<path d="" fill="#00FFFF" transform="translate(0,0)"/>
<path d="" fill="#7FBF7F" transform="translate(0,0)"/>
<path d="" fill="#00FF00" transform="translate(0,0)"/>
<path d="" fill="#00FFFF" transform="translate(0,0)"/>
<path d="" fill="#00FFFF" transform="translate(0,0)"/>
<path d="" fill="#7F7F7F" transform="translate(0,0)"/>
<path d="" fill="#00FF00" transform="translate(0,0)"/>
<path d="" fill="#00FFFF" transform="translate(0,0)"/>
<path d="" fill="#00FF00" transform="translate(0,0)"/>
<path d="" fill="#7F7F7F" transform="translate(0,0)"/>
<path d="" fill="#00FF00" transform="translate(0,0)"/>
<path d="" fill="#7F7F7F" transform="translate(0,0)"/>
<path d="" fill="#00FF00" transform="translate(0,0)"/>
<path d="" fill="#00FF00" transform="translate(0,0)"/>
<path d="" fill="#00FF00" transform="translate(0,0)"/>
<path d="" fill="#00FF00" transform="translate(0,0)"/>
<path d="" fill="#7F7F7F" transform="translate(0,0)"/>
<path d="" fill="#55AA55" transform="translate(0,0)"/>
<path d="" fill="#7F7F7F" transform="translate(0,0)"/>
<path d="" fill="#00FF00" transform="translate(0,0)"/>
<path d="" fill="#00FFFF" transform="translate(0,0)"/>
<path d="" fill="#7F7F7F" transform="translate(0,0)"/>
<path d="" fill="#55AAAA" transform="translate(0,0)"/>
<path d="" fill="#7F7F7F" transform="translate(0,0)"/>
<path d="" fill="#00FF00" transform="translate(0,0)"/>
<path d="" fill="#00FF00" transform="translate(0,0)"/>
<path d="" fill="#00FF00" transform="translate(0,0)"/>
<path d="" fill="#00FF00" transform="translate(0,0)"/>
<path d="" fill="#00FF00" transform="translate(0,0)"/>
<path d="" fill="#7F7F7F" transform="translate(0,0)"/>
<path d="" fill="#7F7F7F" transform="translate(0,0)"/>
<path d="" fill="#7F7F7F" transform="translate(0,0)"/>
<path d="" fill="#7F7F7F" transform="translate(0,0)"/>
<path d="" fill="#00FF00" transform="translate(0,0)"/>
<path d="" fill="#55AA55" transform="translate(0,0)"/>
<path d="" fill="#00FF00" transform="translate(0,0)"/>
<path d="" fill="#00FF00" transform="translate(0,0)"/>
<path d="" fill="#00FF00" transform="translate(0,0)"/>
<path d="" fill="#00FF00" transform="translate(0,0)"/>
<path d="" fill="#00FF00" transform="translate(0,0)"/>
<path d="" fill="#00FF00" transform="translate(0,0)"/>
<path d="" fill="#00FF00" transform="translate(0,0)"/>
<path d="" fill="#55AA55" transform="translate(0,0)"/>
<path d="" fill="#00FF00" transform="translate(0,0)"/>
<path d="" fill="#7F7F7F" transform="translate(0,0)"/>
<path d="" fill="#00FF00" transform="translate(0,0)"/>
<path d="" fill="#7F7F7F" transform="translate(0,0)"/>
<path d="" fill="#00FF00" transform="translate(0,0)"/>
<path d="" fill="#00FF00" transform="translate(0,0)"/>
<path d="" fill="#00FFFF" transform="translate(0,0)"/>
<path d="" fill="#00FF00" transform="translate(0,0)"/>
<path d="" fill="#00FF00" transform="translate(0,0)"/>
<path d="" fill="#00FF00" transform="translate(0,0)"/>
<path d="" fill="#7F7F7F" transform="translate(0,0)"/>
<path d="" fill="#00FF00" transform="translate(0,0)"/>
<path d="" fill="#00FF00" transform="translate(0,0)"/>
<path d="" fill="#00FF00" transform="translate(0,0)"/>
<path d="" fill="#00FF00" transform="translate(0,0)"/>
<path d="" fill="#00FF00" transform="translate(0,0)"/>
<path d="" fill="#00FF00" transform="translate(0,0)"/>
</svg>
